<svg width="60" height="60" viewBox="0 0 60 60" fill="none" xmlns="http://www.w3.org/2000/svg">
<path fill-rule="evenodd" clip-rule="evenodd" d="M23.9103 58.7808C24.0226 58.8462 24.0419 58.8507 24.044 58.8597C24.0861 59.0398 23.7685 59.6286 23.6158 59.694C23.4182 59.7787 23.2299 59.8874 23.0098 60C23.1744 59.8032 23.2707 59.702 23.3515 59.5887C23.5453 59.3171 23.7318 59.0399 23.9103 58.7808ZM21.5567 58.4243C21.7163 58.6934 21.815 58.8597 21.9275 59.0494C21.761 59.1466 21.6359 59.2197 21.4807 59.3102C21.5064 59.0096 21.526 58.7824 21.5567 58.4243ZM30.1664 57.9849C30.2908 58.2813 30.4492 58.2288 30.6141 58.1524L30.6851 58.1192C30.7444 58.0919 30.804 58.0675 30.8627 58.0608V58.6194C30.8258 58.6446 30.7889 58.6696 30.752 58.6948C30.6483 58.6048 30.5466 58.5121 30.4398 58.4265C30.3976 58.3927 30.3355 58.3439 30.297 58.3554C30.1831 58.3893 30.0727 58.4633 30.036 58.2657C29.96 58.3155 29.8841 58.3654 29.8082 58.4153L29.8468 58.4669C29.5661 58.5767 29.2854 58.6863 28.9819 58.8049C28.7933 58.6035 28.7175 58.6335 28.5683 59.0138C28.3538 58.9532 28.149 58.8956 27.9505 58.8396C28.4673 58.6224 28.952 58.419 29.4367 58.2152C29.6321 58.1331 29.8258 58.0464 30.0235 57.9709C30.0659 57.9546 30.1566 57.9615 30.1664 57.9849ZM15.5659 58.3238C15.579 58.3476 15.5922 58.3716 15.6053 58.3955C15.5207 58.5892 15.4362 58.7829 15.3626 58.9512C15.2133 58.9108 15.0681 58.8716 14.8565 58.8145C15.1054 58.6423 15.3357 58.483 15.5659 58.3238ZM23.1956 58.6257C23.1962 58.6299 23.2046 58.6297 23.2206 58.6246C23.077 58.736 22.9335 58.8476 22.8026 58.9494C22.6411 58.9113 22.4907 58.8759 22.2376 58.8163C22.4093 58.725 22.5512 58.6079 22.7084 58.5776C22.8628 58.5478 23.0326 58.6061 23.1956 58.6257ZM31.3315 57.4827C31.3938 57.5384 31.5043 57.5981 31.5044 57.657L31.5053 57.8037C31.5069 58.1711 31.49 58.5386 31.1094 58.7728C30.9639 58.5186 31.6261 58.2336 31.0734 58.0288C31.2089 57.9614 31.3336 57.8992 31.4851 57.8238C31.3867 57.6986 31.3253 57.6206 31.2633 57.5418C31.2978 57.5115 31.3286 57.48 31.3315 57.4827ZM18.8991 57.8163C18.986 57.8168 19.0726 57.8642 19.1593 57.8911C19.0966 57.9495 19.025 58.0005 18.9738 58.0684C18.9395 58.1138 18.9142 58.1668 18.8893 58.2201L18.8585 58.284L18.7849 58.1633C18.7335 58.0786 18.6811 57.9922 18.6254 57.9005C18.7346 57.8646 18.817 57.8158 18.8991 57.8163ZM35.5902 57.6211C35.6882 57.678 35.7862 57.7348 35.9356 57.8216C35.8012 57.8488 35.7079 57.8678 35.6387 57.8818C35.629 58.0077 35.6202 58.1233 35.6112 58.239L35.483 58.2239C35.4834 58.1735 35.4716 58.1215 35.4584 58.0694L35.4391 57.9913C35.4098 57.8615 35.4066 57.7348 35.6014 57.6325L35.5929 57.6239C35.5913 57.6223 35.5902 57.6211 35.5902 57.6211ZM24.7406 57.2347C24.8087 57.2982 24.8779 57.3996 24.8828 57.489C24.8888 57.6 24.8299 57.7149 24.799 57.8282C24.7885 57.8515 24.7766 57.8743 24.7637 57.8963C24.6807 57.929 24.5982 57.9629 24.5148 57.994C24.4157 58.0308 24.3158 58.0651 24.2162 58.1005C24.1948 57.9311 24.1147 57.7369 24.1674 57.5988C24.2272 57.4423 24.3988 57.326 24.5379 57.2142C24.5794 57.1809 24.6978 57.1947 24.7406 57.2347ZM29.7407 56.9179L29.8167 56.9807C29.8113 57.0776 29.7968 57.175 29.8029 57.271L29.811 57.333L29.8368 57.4565C29.8442 57.4972 29.848 57.537 29.8415 57.5753C29.8351 57.6132 29.6788 57.6714 29.6339 57.6435C29.5363 57.5831 29.4666 57.4734 29.3671 57.3634C29.3262 57.3722 29.2279 57.3932 29.1297 57.4144C29.1514 57.3063 29.139 57.1617 29.2017 57.0975C29.3433 56.9523 29.4935 56.7478 29.7407 56.9179ZM15.1485 56.787C15.2798 56.8063 15.4111 56.8256 15.5671 56.8486C14.7717 57.3791 14.7831 57.2884 14.5131 57.0321C14.7939 57.0126 15.0977 57.1999 15.1485 56.787ZM34.6636 0.0359219L34.7374 0.060274C35.1953 0.23795 35.6471 0.178233 36.0931 0.241489L36.2268 0.264515C36.7017 0.362135 37.1939 0.375893 37.6764 0.441516C37.9732 0.481897 38.2659 0.5506 38.5944 0.612993L38.6385 0.44079C39.0575 0.43785 38.7298 0.835796 38.9355 0.988426L39.0784 0.7168L39.5727 1.37924L39.6239 1.29038C39.729 1.32996 39.8682 1.3406 39.9335 1.41412C40.1956 1.70922 40.4348 2.0238 40.7602 2.30265L40.6326 1.81815L40.6804 1.79488L41.2718 2.70944L41.3667 2.15329C41.6449 2.28772 41.8753 2.42371 42.1232 2.51291C42.4874 2.64386 42.6081 2.99143 42.8495 3.23017C42.883 3.26319 42.9421 3.30353 42.9795 3.29566C43.3361 3.22068 43.5072 3.29378 43.6324 3.57528L43.6892 3.71317C43.7495 3.84759 43.8339 3.94763 44.0199 3.74799C44.0475 3.71836 44.1777 3.74181 44.23 3.78027C44.35 3.86861 44.4513 3.98146 44.5571 4.08138L44.4265 4.3691L44.4559 4.38033L44.5199 4.40797C44.5621 4.42602 44.6 4.4398 44.6122 4.42802C44.6767 4.36571 44.7105 4.27308 44.7799 4.15062L45.5221 4.65149C45.7721 4.82061 46.0236 4.99175 46.2739 5.16456C46.3025 5.18432 46.2908 5.25853 46.3 5.30705L46.3258 5.47802C46.3318 5.50745 46.3389 5.52808 46.3483 5.52922C46.7645 5.57992 46.8027 6.04542 47.1373 6.22046L47.2084 6.25138C47.4373 6.33224 47.5702 6.66496 47.7556 6.8765C47.8476 6.98163 47.9505 7.08348 48.0658 7.16237C48.3692 7.36999 48.5121 7.61709 48.5377 7.98699L48.5414 8.06816C48.5499 8.43101 48.6256 8.86936 48.8325 9.1487L48.887 9.21509C49.1421 9.49467 48.9834 9.66639 48.9599 9.89888C49.3361 9.94729 49.2126 10.2848 49.311 10.4983L49.3308 10.5346C49.3842 10.6175 49.4031 10.7251 49.415 10.8326L49.4278 10.96C49.4599 11.2653 49.4863 11.572 49.4932 11.8786C49.4947 11.9432 49.4086 12.0151 49.3528 12.0745C49.0338 12.4141 48.99 12.7767 49.1494 13.2047L49.1817 13.2857C49.3133 13.5973 49.4122 13.9432 49.4193 14.276C49.4237 14.4746 49.2385 14.6881 49.1088 14.8752L49.0586 14.9497C48.9649 15.0957 48.9197 15.2269 49.0806 15.3945C49.1358 15.4522 49.1478 15.583 49.1291 15.6699L49.0114 16.2163C48.9508 16.4891 48.8848 16.7606 48.8021 17.027C48.6875 17.3961 48.5383 17.761 48.351 18.0994C48.2691 18.2473 48.0536 18.3243 47.8641 18.458L48.2683 18.7145L48.0065 19.2248C47.9634 19.3113 47.9214 19.3987 47.882 19.4871C47.7686 19.7415 47.6841 20.0082 47.5755 20.2648C47.5357 20.3586 47.4545 20.4348 47.4078 20.5267C47.3629 20.6152 47.3105 20.7133 47.3099 20.8074C47.3082 21.0685 47.064 21.3477 46.7714 21.3479L46.9938 21.6113C46.6418 21.7846 46.6239 21.8205 46.7387 22.113C46.5894 22.1927 46.4268 22.2557 46.2946 22.3567C46.1636 22.4567 46.0632 22.5951 45.9375 22.7293C46.0408 23.0494 45.8523 23.4314 45.5294 23.6628C45.3092 23.8207 44.918 23.923 45.0777 24.2542C44.8979 24.4177 44.689 24.5282 44.6054 24.6979C44.313 25.2909 43.7733 25.6139 43.2484 25.9487C43.1258 26.0268 43.049 26.3235 42.8018 26.1217L42.6088 26.3774C42.5148 26.5 42.3814 26.6101 42.3374 26.7477C42.3016 26.8599 42.3723 27.0048 42.3831 27.0651C42.2255 27.1406 42.0029 27.1871 41.8812 27.3213C41.7379 27.4795 41.6934 27.7199 41.5842 27.9126C41.511 28.0419 41.3996 28.1504 41.3054 28.2681L41.1901 28.1854L41.3279 27.9005L41.2734 27.8333L40.9486 28.02L40.7883 28.1166C40.4489 28.3282 40.074 28.4596 39.8088 28.8147C39.632 29.0515 39.2573 29.164 38.9518 29.2853L38.8659 29.3211C38.6901 29.3997 38.5842 29.4913 38.6292 29.7275C38.6406 29.7877 38.5319 29.934 38.4965 29.9285C38.1202 29.8709 38.054 30.2359 37.7969 30.3983C37.751 30.3507 37.7061 30.2623 37.6482 30.2531C37.5429 30.2366 37.3448 30.2429 37.3332 30.2819C37.2145 30.6803 36.8274 30.8183 36.5843 31.0857C36.2132 31.4939 35.6732 31.662 35.3156 32.0776C35.1971 32.2154 34.9279 32.2297 34.7265 32.2974C34.6827 32.3121 34.6023 32.3006 34.5928 32.323C34.4821 32.5861 34.1355 32.5874 34.0253 32.7424C33.8879 32.9359 33.7484 32.9501 33.5723 33.0099C33.4479 33.0523 33.3642 33.198 33.2426 33.2609C33.0023 33.385 32.7556 33.5621 32.5046 33.6064L32.4207 33.616C32.0312 33.6352 31.721 33.9524 31.3037 33.8385C31.2034 33.8111 31.0547 33.954 30.9082 34.0289L31.0226 34.2388L29.4895 34.8363C29.4391 35.013 29.2907 35.0506 29.1268 35.0678L29.0023 35.0788C28.8567 35.0915 28.7151 35.1114 28.6329 35.2181L28.2971 34.8845L28.2425 35.2802C28.1918 35.3373 28.1248 35.4527 28.0236 35.5156C27.9342 35.5712 27.8074 35.5836 27.6961 35.5873C27.5871 35.5909 27.4609 35.5176 27.3701 35.5509C27.0583 35.6654 26.7588 35.8117 26.429 35.9572L26.3839 35.7798C26.1493 35.9055 26.0901 36.4161 25.711 36.1253C25.5905 36.2265 25.5031 36.3562 25.3893 36.3847C25.1355 36.4483 24.8738 36.4807 24.6154 36.5266L24.3584 36.5785C23.9725 36.6687 23.5774 36.6193 23.1824 36.7331L23.0507 36.7774C22.6603 36.9295 22.1845 36.8699 21.7471 36.9105C21.6945 36.9154 21.6487 36.9801 21.5954 36.9875C21.4553 37.007 21.3128 37.0101 21.1666 36.9799C20.874 37.1693 20.5816 37.1774 20.4212 36.9536C20.2279 37.3519 19.8865 37.0556 19.6201 37.1065C19.3512 37.1578 19.0668 37.1322 18.7903 37.0662L18.7501 37.089L18.6692 37.1405C18.6289 37.1648 18.5889 37.1834 18.5501 37.1812C17.697 37.1334 16.8443 37.0772 15.9922 37.0133C15.5912 36.9831 15.1715 36.9931 14.7966 36.8745C14.2646 36.7062 13.743 36.4737 13.2632 36.1929C13.0297 36.0562 12.9009 35.7478 12.6989 35.4833L12.9521 35.5296L13.006 35.4573L12.54 35.3373L12.6674 35.1335L13.6184 35.6178L13.4268 35.2239C13.8632 35.44 14.2346 35.6652 14.6358 35.8132C15.191 36.0181 15.7723 36.0033 16.3534 35.9707L16.6438 35.9539C17.361 35.913 18.0774 35.8424 18.7586 35.6228C19.5639 35.3631 20.3575 35.0632 21.1403 34.7432C21.7849 34.4798 22.4124 34.1735 23.0351 33.8626C23.2965 33.732 23.5195 33.5298 23.772 33.3797L23.9035 33.3118L24.1782 33.1947C24.2234 33.1744 24.2679 33.1527 24.3107 33.1281C24.6151 32.9533 24.9136 32.7675 25.2057 32.5735C25.9963 32.0485 26.7827 31.5172 27.5697 30.9869C27.6346 30.9432 27.6862 30.8792 27.7535 30.8408L27.9953 30.707C28.1193 30.64 28.2495 30.5715 28.3926 30.4944C28.3776 30.3457 28.6587 30.0796 28.9004 30.0117C29.0435 29.9714 29.1349 29.7763 29.266 29.6703L31.5104 27.8703C31.9169 27.5415 32.3254 27.2136 32.7124 26.8636C33.3182 26.3156 33.922 25.7639 34.4981 25.1867C34.9725 24.7112 35.4322 24.221 35.8837 23.7241L36.221 23.3503C36.8762 22.6193 37.5392 21.8918 38.1416 21.1199C38.5256 20.628 38.81 20.0608 39.1308 19.5226L39.3853 19.0979C39.5111 18.8847 39.6319 18.6689 39.7335 18.4451C39.9291 18.0147 40.069 17.5603 40.2383 17.1182L40.4129 16.6576C40.7574 15.7346 41.0636 14.7991 41.162 13.8174C41.2055 13.3831 41.1073 12.9168 40.9776 12.4934C40.9267 12.3273 40.6744 12.2318 40.73 11.9591L40.7467 11.8844C40.7838 11.7365 40.8335 11.6821 41.0052 11.7806L41.1828 11.2271L40.7479 11.0853C40.6738 11.062 40.599 11.0395 40.5237 11.019L40.3989 10.9897L40.1452 10.9424C40.061 10.9261 39.9783 10.9072 39.9 10.8795L39.8045 10.8398C39.4896 10.6868 39.1888 10.8316 38.9471 10.9148C38.7279 10.9903 38.5933 10.9479 38.4107 10.9084C38.2571 10.8751 38.0877 10.8635 37.9338 10.8898C37.6647 10.936 37.4046 11.0309 37.1363 11.0831C36.7497 11.1584 36.2949 11.1126 35.9852 11.3011C35.509 11.5906 35.0238 11.5372 34.5307 11.5943C34.4282 11.6062 34.3146 11.786 34.2658 11.9108C34.2186 12.0314 34.2482 12.1809 34.2433 12.3462L33.8947 12.2338L33.9053 12.286C33.6345 12.3328 33.3639 12.3802 33.0928 12.4247C33.0729 12.4279 33.048 12.3987 33.0275 12.4011L31.5204 12.5846C31.635 12.8852 31.6601 13.1297 31.3715 13.1964C31.1778 13.241 30.9561 13.1622 30.7462 13.1497C30.6704 13.1452 30.578 13.1507 30.5181 13.189C29.9789 13.5337 29.449 13.8923 28.9079 14.2341C28.7436 14.3379 28.5532 14.4019 28.344 14.4984L28.206 14.2987C27.6774 14.4528 27.3522 14.747 27.2488 15.2635L27.2337 15.3516C27.2111 15.5072 27.1093 15.7311 26.8127 15.6861C26.718 15.6718 26.5973 15.8301 26.4865 15.9068C26.3321 16.0137 26.1763 16.1187 26.02 16.223C25.994 16.2404 25.9389 16.2481 25.9372 16.2642C25.8926 16.6817 25.421 16.7084 25.2428 16.9913C24.9544 17.4492 24.3526 17.5699 24.0927 18.0505C24.0437 18.1412 23.9971 18.2379 23.9268 18.3112C23.8653 18.3753 23.7238 18.4681 23.7005 18.4494C23.4938 18.283 23.3909 18.4584 23.2404 18.5415C23.0451 18.6495 22.8227 18.7104 22.5916 18.7993C22.5521 19.318 21.9178 19.4929 21.7278 19.9017C21.5539 19.8698 21.3869 19.7936 21.3361 19.8398C21.2447 19.923 21.2231 20.0796 21.1723 20.2056L21.2658 20.2846L19.546 20.6761L19.3944 20.4022C19.3288 20.4601 19.2647 20.5195 19.1973 20.5752C19.1291 20.6316 19.0577 20.6844 18.971 20.7517L19.1291 20.9953L19.0908 21.0669L18.6275 20.8547L18.1365 21.3578L18.3937 21.6416L18.274 21.6422L17.9565 22.0481C17.8561 22.1758 17.7584 22.2967 17.6548 22.4126C17.544 22.5365 17.3949 22.6281 17.2598 22.7301C17.2425 22.7431 17.2273 22.7629 17.2126 22.7842L17.1833 22.8274C17.1386 22.8907 17.087 22.9367 16.9808 22.8249L16.9026 22.9039C16.89 22.9174 16.8778 22.9312 16.8666 22.9457C16.7745 23.065 16.8591 23.3317 16.5692 23.2854L16.5848 23.4396L17.6952 23.2083C17.94 23.1567 18.1896 23.0248 18.2449 22.8177L18.2541 22.7686C18.2802 22.5331 18.415 22.4236 18.5578 22.3202L18.653 22.2509C18.6844 22.2272 18.7151 22.2026 18.7439 22.1756C18.8415 22.0843 18.9236 21.9764 19.0262 21.8915C19.1078 21.824 19.2059 21.7435 19.3033 21.7339C19.4654 21.718 19.6328 21.7544 19.8607 21.7743L19.0342 23.1829L18.8112 22.8298L17.4357 23.7575L17.4157 23.5085L16.5901 23.7909L16.3109 23.5755L16.0104 23.9491L15.6398 23.7366C15.5549 24.093 15.6298 24.1763 15.9602 24.0991L15.973 24.2777C15.9767 24.3366 15.9779 24.3949 15.9705 24.4522C15.9636 24.5059 15.8745 24.6009 15.8502 24.5933C15.4104 24.4552 15.3861 24.8716 15.1683 25.0817L15.0107 24.8088L14.6556 25.2406L14.9445 25.7722L14.1173 26.1934L14.263 26.6694L14.158 26.7139L13.9987 26.539L13.3431 27.203L13.343 27.2027L13.3538 27.2289C13.3615 27.2473 13.371 27.2704 13.3758 27.2821C13.2928 27.3733 13.2014 27.4373 13.1618 27.5239C13.0471 27.7748 12.9474 28.0326 12.8529 28.2915C12.7384 28.6052 12.4776 28.866 12.496 29.2319C12.497 29.2522 12.3559 29.2795 12.2547 29.3119L12.3137 29.4331C12.3707 29.5595 12.3833 29.6675 12.1407 29.7289C11.9694 29.7722 12.0764 30.3461 12.1872 30.4281C12.0839 30.6251 11.9347 30.7959 11.9084 30.9833C11.8536 31.3747 11.6792 31.6232 11.3327 31.6721L11.2962 32.0096C11.2931 32.0346 11.2898 32.0593 11.2862 32.084C11.2447 32.3667 11.2014 32.6494 11.155 32.9313C11.0963 33.2886 11.0364 33.6458 10.9689 34.0015C10.9626 34.035 10.901 34.0651 10.8591 34.0833C10.83 34.096 10.7603 34.082 10.7598 34.086L10.74 34.2798L10.7167 34.5554C10.7141 34.6235 10.7224 34.6925 10.7728 34.7651L10.5234 34.9949L10.3107 34.8281L10.2913 34.9177C10.209 35.2688 10.0623 35.522 9.56921 35.2825C9.6247 35.5959 9.40991 35.8582 9.70838 36.069C9.72627 36.0816 9.71832 36.1371 9.71346 36.1715C9.70381 36.2395 9.6879 36.3066 9.67452 36.374L9.91823 36.3449C9.79513 36.7207 9.85568 37.1979 9.26592 37.3156L9.3209 37.3939L9.84037 37.5764L10.3246 36.689L10.4314 36.7333C10.4278 36.8077 10.4555 36.9146 10.4156 36.9514C10.107 37.2367 10.1801 37.6685 9.98392 37.9948C9.95745 38.0388 9.95601 38.1139 9.97391 38.1641C10.0826 38.469 10.1166 38.7627 9.89257 39.0379C9.87496 39.0596 9.87387 39.127 9.88874 39.1361C10.1949 39.3237 9.96428 39.5584 9.97156 39.7777C9.97749 39.9564 10.1216 40.1307 10.2222 40.3445L9.96769 40.4502L10.4763 41.3804L10.3671 41.4364L10.5719 42.5735L10.5441 42.6036C10.5213 42.6257 10.4864 42.6541 10.4464 42.6665C10.1379 42.763 10.2249 42.9423 10.374 43.0823C10.6424 43.3341 10.66 43.6486 10.6841 43.9746C10.6905 44.0612 10.7248 44.1496 10.7661 44.2314L10.7981 44.2915C10.9553 44.5726 10.9232 44.9494 11.3502 45.1027C11.4964 45.1552 11.5227 45.5286 11.6137 45.7833C11.8092 45.717 11.8898 45.94 12.0458 46.0697L12.0832 46.0978C12.4517 46.3452 12.4549 46.8498 12.7929 47.0271C13.1663 47.223 13.3584 47.565 13.6584 47.7793L13.7476 47.8402L13.9304 47.9581C14.0523 48.0378 14.1715 48.1234 14.2722 48.2376C14.3174 48.289 14.4605 48.3171 14.5165 48.2851C14.5899 48.2432 14.6216 48.1312 14.6613 48.0657C14.9482 48.325 15.2461 48.6474 15.5966 48.8998C16.2339 49.3588 16.9537 49.6738 17.7205 49.8644C18.3801 50.0283 19.0454 50.178 19.7157 50.2908C20.2128 50.3744 20.7224 50.3849 21.2258 50.4353C21.4614 50.4589 21.6945 50.5131 21.9304 50.5261C22.024 50.5312 22.1218 50.4622 22.2613 50.4108L22.3013 50.7191L22.3637 50.7553L22.5314 50.4306L23.4817 50.2665L23.4964 50.3286L23.0944 50.4865C23.4528 50.6865 24.0782 50.6392 24.2974 50.5345L25.4032 50.4184L24.8094 50.8796L24.87 50.9317L25.6306 50.8651L25.6772 50.2955L25.8303 50.3078L25.8326 50.7251C26.0895 50.7239 26.2704 50.6316 26.3568 50.3586C26.3875 50.2618 26.5074 50.1921 26.5866 50.1101L26.6971 50.2037L26.4248 50.6194L26.4605 50.7031L26.8071 50.5618L26.9607 50.7356C27.0833 50.5945 27.1399 50.4788 27.231 50.4388C27.3198 50.4 27.4441 50.4387 27.6205 50.4463C27.6888 50.4086 27.8227 50.2962 27.9757 50.2589L28.0588 50.2358C28.2791 50.1654 28.3645 50.0476 28.1636 49.7427C28.3776 49.8656 28.3733 50.2558 28.6944 50.0373L28.5977 49.9105C28.4276 49.6775 28.4781 49.6428 28.8482 49.3883L28.8193 50.0606L29.4685 49.7571C29.6754 49.6608 29.8757 49.569 30.0778 49.4814C30.1881 49.4336 30.3206 49.4351 30.4822 49.4072L30.6634 48.996L30.8618 49.097L30.8072 49.5247L31.3514 48.7317L31.5112 48.8011L31.3597 49.2911C31.7347 49.2884 31.8392 49.0571 31.6487 48.5934L32.2287 48.3201L32.2606 48.3693L31.754 48.8568L31.965 48.9643C32.0965 49.0299 32.211 49.0859 32.3163 49.1486L32.3937 49.197C32.8273 49.4839 32.712 49.0255 32.8328 48.8923C32.851 48.8721 32.8308 48.8185 32.8284 48.7804C33.311 48.7626 33.1574 48.357 33.2829 48.0432L32.8227 48.2862C32.8695 48.0147 32.9727 47.9559 33.5781 47.8894L33.4068 48.3822L33.5402 48.4573L33.6134 48.8641L33.5681 48.8487L33.4891 49.6704L33.6335 49.6968L33.7159 49.3014C33.7305 49.2358 33.7461 49.1704 33.7637 49.1055C33.8341 48.8472 33.876 48.5684 34.0086 48.3426C34.1632 48.0795 34.4023 47.8642 34.6175 47.6133L34.7936 47.7699L35.7419 47.4085L35.552 47.7188C36.0414 47.7437 36.3808 47.5503 36.4243 47.2578C36.8175 47.2363 36.9206 47.0121 36.9957 46.7854L37.027 46.6886C37.0632 46.577 37.1017 46.4718 37.1754 46.3981L37.5097 46.2622C37.5651 46.2389 37.6201 46.2148 37.6743 46.1892C37.8406 46.1107 37.9976 45.9524 38.163 45.9464C38.4879 45.9348 38.3321 45.7747 38.2879 45.5809L38.5915 45.7583L38.3 46.3032C38.898 46.2254 38.728 45.614 39.1381 45.5056C39.2103 45.9539 38.9472 46.3243 38.759 46.7247L39.647 46.0689L39.7446 46.1234L39.535 45.5238L39.7506 45.0895C40.0568 45.1876 40.1474 44.868 40.1661 44.7003L40.17 44.6484C40.1802 44.3146 40.4305 44.2515 40.6033 44.096L40.7908 44.3447L40.419 44.7126C41.1331 44.6171 41.3081 44.4343 41.1508 43.9752L41.6964 43.9741L41.9087 43.4227L41.8044 43.1601L41.8931 43.2263C42.1196 43.3899 42.146 43.3493 42.2006 43.0899C42.2203 42.9961 42.311 42.9166 42.4274 42.8375C42.2874 43.2527 42.4354 43.6125 42.5621 44.0495L42.8261 43.0029L42.9161 43.0213L42.8927 43.3626L43.2326 43.4557L43.1337 42.9066L43.4213 43.126L43.5827 42.7304L43.6485 42.7455L43.5696 43.1517L43.6275 43.1835L44.3855 41.7048L44.5092 41.9929C44.5453 41.8877 44.5975 41.8141 44.5886 41.7485C44.5398 41.3879 44.6611 41.2409 45.0158 41.2108C45.1057 41.2032 45.2267 41.1322 45.2678 41.0564C45.4852 40.6544 45.6816 40.2414 45.9105 39.7817L46.0521 40.0932L46.811 39.3535L46.8822 39.6665L47.098 39.349L46.8833 39.2714L48.5653 37.7367L48.8158 37.9559L49.1802 37.4095C49.2578 37.2921 49.3329 37.176 49.4054 37.0583C49.5609 36.8057 49.685 36.5343 49.8458 36.2853C49.9801 36.0776 50.1874 35.9083 50.2899 35.6894C50.413 35.4264 50.4594 35.129 50.5287 34.8832L50.8659 34.6102L51.0553 34.7542L51.1908 34.1574L51.3351 34.2182C51.4512 34.0023 51.5141 33.7335 51.6616 33.6061L51.7085 33.5723C51.9183 33.4491 51.7121 32.963 52.1587 33.1112L52.1903 32.499L52.3256 32.4951L52.4143 32.9877C52.604 32.6079 52.7438 32.7933 52.8888 33.0273C52.929 32.9 52.8892 32.7657 52.8427 32.6354L52.8115 32.5492C52.7298 32.3216 52.678 32.1141 53.0666 31.9877L52.909 31.583L52.9884 31.5437L53.2456 32.1253L53.7354 31.0503L53.4804 30.8938L53.9135 30.8447C53.9601 30.6044 54.2438 30.4175 54.1263 30.0997C53.9587 29.6459 54.1131 29.2175 54.2608 28.7871C54.2948 28.6883 54.2394 28.5602 54.2616 28.44C54.4227 28.6468 54.4394 28.8772 54.4759 29.1143L54.489 29.1936C54.543 29.4937 54.4507 29.9465 54.913 30.1679L54.9009 29.5842L55.0965 29.7949L55.1442 29.7148C55.2273 29.5678 55.2524 29.4468 54.8969 29.3779C55.4043 29.2436 55.4683 28.9269 55.5014 28.5917L55.4964 28.5964C55.5365 28.518 55.5989 28.4428 55.6112 28.3604C55.63 28.233 55.6145 28.1008 55.6138 28.0068C55.8104 28.122 56.0051 28.3291 56.1548 28.3016C56.3597 28.2638 56.39 28.0249 56.2569 27.8422C55.7724 28.1097 56.0401 27.3597 55.66 27.525L55.8446 26.8937C55.8881 26.7472 55.9311 26.6069 55.977 26.4675C55.994 26.4154 56.049 26.3753 56.0975 26.3333L56.1221 26.31L56.1296 26.2644C56.1568 25.9885 55.9324 25.6749 56.2596 25.4394C56.2831 25.4225 56.2815 25.3542 56.2702 25.3022L56.2624 25.2734C56.1047 24.809 56.3612 24.3793 56.379 23.9297C56.3837 23.8097 56.4541 23.6923 56.4943 23.5737L56.6205 23.6534L56.4923 23.4332L56.5801 23.392C56.5949 23.3857 56.606 23.3829 56.6122 23.3871C56.8226 23.5278 56.8951 23.6635 56.809 23.9256L56.7598 24.0608C56.6852 24.2784 56.6318 24.586 56.9328 24.8117L57.0424 24.5235C57.1183 24.6104 57.2215 24.6773 57.2415 24.7623C57.272 24.8986 57.2466 25.0469 57.2465 25.19L57.2471 26.189L57.1734 26.2326C57.0827 26.2832 56.9861 26.3313 56.9918 26.36C57.0036 26.4199 56.9831 26.4793 56.9572 26.5386L56.9252 26.6096C56.8785 26.716 56.8491 26.8217 56.9937 26.9276L57.0591 26.9766C57.2826 27.1494 57.4392 27.3378 57.099 27.6055C57.0562 27.639 57.0464 27.7262 57.0444 27.7997L57.044 27.835C57.0444 28.162 57.0547 28.489 57.0625 28.88L56.7164 28.6057L56.7245 29.2768L56.6883 29.5234C56.6788 29.5842 56.6677 29.6475 56.654 29.7102L56.6349 29.8026C56.6178 29.8824 56.5946 29.9626 56.5445 29.994C56.3763 30.099 56.3492 30.1953 56.4416 30.3634C56.4638 30.4037 56.4045 30.5172 56.3516 30.5619C56.0431 30.8224 56.1154 31.1565 56.1589 31.53L55.848 31.295C55.8211 31.5881 55.8968 31.945 55.7552 32.0747C55.4198 32.3823 55.5657 32.7092 55.6102 33.0133C55.6494 33.2831 55.824 33.5333 55.9354 33.7937C56.0071 33.9615 56.0725 34.1319 56.1407 34.3011L56.0504 34.3445L55.8504 34.1373L55.8138 34.3061C55.7511 34.5815 55.6647 34.8177 55.3187 34.8735L55.2468 35.9078L55.1466 35.9101L55.123 35.2714C54.7799 35.4807 54.7921 35.7572 54.8409 36.046L54.8617 36.1621C54.8722 36.2203 54.8826 36.2788 54.8902 36.337L54.5592 36.081C54.9098 35.9154 54.5873 35.767 54.534 35.5743L54.702 35.5453C54.6728 35.329 54.5517 35.0887 54.8775 34.9838C54.8334 34.5235 55.3228 34.3214 55.41 33.9264C55.424 33.8629 55.3934 33.791 55.3948 33.7234C55.399 33.5265 55.4247 33.3288 55.411 33.1334C55.4016 32.9994 55.3403 32.8689 55.2859 32.6805L55.0156 33.0762L54.9851 33.1198C54.9541 33.1639 54.8807 33.2129 54.8886 33.2452C55.0683 33.9794 54.6531 34.5997 54.3964 35.209C54.2232 35.6199 54.2275 35.9446 54.3029 36.3291C54.3301 36.4681 54.3114 36.6157 54.3137 36.764C53.8136 36.7009 53.5903 36.9118 53.5151 37.5243L53.9624 37.5237L54.0297 36.995C54.157 36.9656 54.2836 36.8991 54.3914 36.9211C54.52 36.9474 54.6554 37.0305 54.7403 37.1284C54.7723 37.1655 54.6826 37.3192 54.6286 37.4083C54.5555 37.5285 54.4633 37.6376 54.3492 37.7925L54.2031 37.7666C54.2623 38.069 54.5275 38.3768 54.1461 38.5937L54.094 37.7156L54.0219 37.7349L53.6944 38.4413L53.6221 38.4042C53.6674 38.5735 53.751 38.7448 53.7414 38.911C53.7367 38.9904 53.5553 39.06 53.454 39.134C53.5927 38.9715 53.605 38.8423 53.5606 38.7277L53.5645 38.7216C53.502 38.8104 53.4423 38.8952 53.3846 38.9774C53.4078 39.0287 53.4306 39.0808 53.453 39.1329C53.4814 39.1998 53.5529 39.289 53.5308 39.3298C53.4285 39.5194 53.3004 39.6957 53.1814 39.8767L53.0868 39.864C53.1248 39.7288 53.1345 39.5765 53.2067 39.462C53.274 39.3553 53.2966 39.2369 53.2799 39.1271C53.2089 39.2267 53.1407 39.3232 53.072 39.4193C53.0495 39.451 52.9896 39.4805 52.9935 39.5015C53.0949 40.0448 52.7603 40.416 52.5009 40.7977C52.2609 41.1511 51.956 41.4557 51.6263 41.8446C51.6988 41.4793 51.7473 41.2349 51.8037 40.9502C51.831 40.9427 51.9384 40.913 52.0417 40.8846C52.1007 40.6099 52.1585 40.3411 52.2161 40.0735L52.1667 40.1629L52.0909 40.1142L52.1329 39.8261L52.0829 39.8157L51.7635 40.2929L51.8383 40.7086L51.7076 40.6381L50.9527 41.4552L51.1776 41.6837C50.8652 41.8618 50.8816 41.6108 50.8642 41.4634C50.5365 41.3773 50.329 41.4651 50.1811 41.7328C50.1326 41.8205 50.1097 42.0443 49.8918 41.9024C49.8787 41.894 49.8003 41.9409 49.7934 41.9711C49.7463 42.1771 49.7102 42.3856 49.6767 42.5608L49.2532 42.2424L49.0521 42.7078L49.4033 42.6786L49.0198 43.2479L48.8388 42.8099C48.8025 42.8539 48.7524 42.8871 48.7549 42.9158C48.7796 43.1973 48.6082 43.3 48.424 43.3916L48.3316 43.4372C48.2858 43.4604 48.241 43.4846 48.2002 43.5124C48.1529 43.5448 48.0864 43.6372 48.0967 43.6504C48.204 43.7864 48.2419 43.8944 48.2156 43.9922C48.3541 44.0714 48.4887 44.1482 48.6251 44.226V44.6331C48.7496 44.6181 48.8737 44.6033 48.9976 44.5884L49.0268 44.7544C48.8695 44.7854 48.7787 44.922 48.6935 45.0662L48.6425 45.1528C48.5143 45.3677 48.3711 45.5554 48.0067 45.3848C48.0778 45.741 47.5948 46.3203 47.0715 46.6011C47.0414 46.7329 46.9252 46.8444 46.8041 46.9662C46.7624 47.008 46.7384 47.0665 46.7188 47.1294L46.6819 47.2575C46.6754 47.2786 46.6685 47.2993 46.6606 47.3191L46.5905 47.4996C46.5035 47.7192 46.3998 47.9264 46.1534 48.0251L46.0892 48.0466L45.9689 47.6325L45.8289 47.6228L45.4247 48.6346L45.1848 48.6761L45.2371 48.8315L44.9817 49.4644L44.8096 49.3088L44.5032 49.7734C44.5626 49.7813 44.6316 49.804 44.702 49.827C44.8355 49.6693 44.9664 49.5147 45.0973 49.36C45.1285 49.6061 45.2851 49.8585 44.9484 49.9922C44.8487 50.0317 44.8046 50.2255 44.7352 50.3486L44.7397 50.3444L44.7441 50.3403L44.7438 50.3405L44.7444 50.3401L44.7438 50.3409V50.3488L44.7388 50.3483L44.7086 50.395C44.6579 50.4679 44.5997 50.5396 44.589 50.6184C44.5704 50.7549 44.6076 50.8999 44.6259 51.0956C44.4986 51.0555 44.3952 51.023 44.2964 50.9918L44.2244 50.9686L44.2265 50.9688L44.2228 50.9682L44.2221 50.9685C44.1161 51.3292 44.01 51.6901 43.8952 52.0805C43.9212 52.1108 44.0079 52.2015 44.0824 52.3022C44.1368 52.3756 44.175 52.4622 44.2205 52.543C44.1383 52.5247 44.0567 52.4968 43.9739 52.4918C43.925 52.4888 43.8752 52.5285 43.824 52.5375C43.7203 52.5559 43.581 52.6146 43.5206 52.5669C43.4589 52.5181 43.4278 52.3399 43.464 52.257C43.5626 52.0311 43.5111 51.8561 43.3859 51.689L43.3546 51.6489L43.3879 51.6335C43.6655 51.4985 43.878 51.3375 43.7399 50.9261C43.7121 50.8434 43.894 50.6829 43.9707 50.5708C44.0691 50.7239 44.135 50.8263 44.1961 50.9216L44.2265 50.9688C44.2616 50.937 44.3291 50.8796 44.3273 50.8771C44.1369 50.6123 44.3849 50.3536 44.3388 50.1031C44.2894 49.8345 44.3579 49.7659 44.473 49.7707L44.3923 49.3213L44.8621 49.0274C44.8387 48.8541 44.732 48.8554 44.6195 48.8761L44.5445 48.8911C44.4208 48.9152 44.3111 48.9207 44.3214 48.6951C44.6123 48.6474 44.7786 48.3988 44.7244 48.146L44.7103 48.2306C44.5954 48.1792 44.498 48.1355 44.4027 48.0927L44.3845 48.0997L44.3734 48.0796C44.3063 48.0495 44.2395 48.0196 44.1677 47.9874C44.0358 48.2067 43.9078 48.4059 43.8277 48.622C43.8001 48.6966 43.9734 48.8425 44.0738 48.9824L43.4528 49.7214C43.4308 49.7477 43.3968 49.7838 43.4016 49.8092C43.474 50.1885 43.2549 50.3121 43.0223 50.4169L42.9292 50.4584C42.8213 50.5069 42.7185 50.5583 42.6491 50.6365L42.2327 50.5362L42.2395 51.2126L41.8534 51.4293L41.9565 51.2164C41.9698 51.1885 41.9811 51.1629 41.9904 51.1378L42.0479 50.9598C42.0726 50.8794 42.0888 50.8012 42.0585 50.756C42.0049 50.6763 41.8296 50.6341 41.7162 50.6474C41.6332 50.6571 41.5487 50.7735 41.4936 50.8599C41.4309 50.958 41.4 51.0758 41.2835 51.1717L41.2433 50.9484L40.9243 51.118L40.926 51.114L40.639 51.263L40.9804 51.3302L40.9702 51.4241L40.491 51.3807C40.381 51.5694 40.3551 51.9724 39.886 51.8635L39.9104 52.0105C39.9408 52.229 39.891 52.2382 39.5907 52.3382C39.4879 52.3724 39.398 52.4432 39.3058 52.508L39.2386 52.5526L39.0307 52.3217L38.8532 52.8107C38.393 52.6295 38.5363 53.1644 38.2872 53.3127L38.1668 52.9395L37.7679 53.2161L37.6635 53.1514C37.6049 53.115 37.5376 53.0765 37.4651 53.0536C37.4151 53.0377 37.3326 53.1105 37.2712 53.1522C37.2653 53.1563 37.305 53.2249 37.3236 53.2635L37.5024 53.1793C37.6753 53.5034 37.7165 53.793 37.238 54.0205L37.4653 53.6281C37.181 53.2146 36.6558 53.3851 36.1523 54.0831L35.809 53.9327L35.9668 53.8341L35.7884 52.8437L35.9734 52.8418C36.1451 52.8351 36.2792 52.7891 36.1234 52.4854C36.3868 52.4713 36.4896 52.3109 36.5707 52.1295L36.6498 51.9457C36.7228 51.7843 36.8152 51.6392 37.0246 51.5985L36.763 52.1822C37.0027 52.1588 37.1186 52.0453 37.1866 51.8927C37.1388 51.907 37.0876 51.921 37.033 51.9344C37.0149 51.6245 37.0184 51.622 37.7494 51.4147C37.7512 51.5861 37.6285 51.7209 37.3686 51.8284C37.3854 52.0006 37.311 52.1509 37.2277 52.3022L37.1661 52.4138C37.1154 52.5075 37.0689 52.6035 37.0453 52.7072C37.5119 52.6157 37.573 51.8857 38.1588 52.1757L38.135 51.5082L38.4511 51.692C38.4505 51.5083 38.5763 51.5009 38.7123 51.5069L38.7942 51.5108C38.9432 51.5161 39.0765 51.4982 39.0395 51.2401L39.2745 51.2463C39.6926 51.2496 39.683 51.1726 39.6129 50.6139L39.9136 50.8763C39.9503 50.7158 39.9617 50.6036 40.0029 50.5032L40.0341 50.4316C40.081 50.329 40.1453 50.2093 40.1761 50.2151C40.7507 50.325 40.9264 49.7879 41.3201 49.561L41.529 49.7695C41.5857 49.7313 41.679 49.7032 41.6934 49.6534C41.8028 49.2719 42.1859 49.1453 42.436 48.8915L42.4874 48.8351C42.6409 48.6515 42.8233 48.7907 42.8389 48.963L42.3097 49.3335L42.5423 49.7364L42.6111 49.6463C42.5751 49.5868 42.5369 49.5237 42.4961 49.4561C42.574 49.4756 42.6503 49.4881 42.7204 49.4989L43.4361 48.5407L43.357 48.4638L43.0479 48.6434C43.0672 48.4909 43.0394 48.339 43.1024 48.28C43.2256 48.1648 43.3607 48.0618 43.4978 47.9609L43.8648 47.6901C43.88 47.6783 43.8947 47.6661 43.9085 47.6529L44.077 47.4963C44.161 47.4177 44.2425 47.3372 44.3117 47.2476C44.3523 47.195 44.3066 47.0786 44.3012 47.0048L44.6548 46.4301C44.4333 46.4505 44.2935 46.4239 44.2315 46.4797C44.1643 46.5404 44.1694 46.6779 44.1316 46.8268L43.5178 46.8818L43.5127 47.2827L43.1784 46.8799L43.1101 47.3362L42.9482 47.0326L42.6066 47.1674L43.0007 46.447L42.7506 46.3677C42.7239 46.4163 42.7071 46.4712 42.6917 46.5259C42.7131 46.5273 42.7345 46.5285 42.7559 46.5296C42.7751 46.557 42.7942 46.5845 42.8135 46.612C42.6554 46.7351 42.4972 46.8583 42.311 47.0033C42.2946 47.1006 42.2773 47.2233 42.2625 47.3073L42.3735 47.3337L42.5104 47.019C42.6168 47.3432 42.3469 47.7879 41.9639 47.9102L42.0587 47.7011L41.693 47.4934C41.7265 47.6796 41.7701 47.8049 41.7649 47.9281C41.7603 48.0338 41.73 48.1711 41.657 48.2333C41.5611 48.3148 41.412 48.3364 41.1916 48.4189C41.3343 48.2507 41.4501 48.1486 41.5209 48.0222C41.6167 47.8513 41.5926 47.7042 41.3602 47.6784L41.183 48.172L41.0699 48.1374L41.1178 47.7753L40.1307 48.7281L40.1409 48.78C40.3019 48.7189 40.5039 48.6963 40.6123 48.5857C40.714 48.482 40.7169 48.2853 40.7633 48.1295L40.9574 48.2578C41.0693 48.9631 40.6421 49.4194 40.1184 49.9152L40.1191 49.5974L40.0016 49.6641L39.8532 49.7413L40.0188 49.9731L39.9619 50.0171C39.8337 50.1131 39.7363 50.1526 39.6436 49.9436L39.6239 49.8949C39.5686 49.7477 39.3942 49.6288 39.2076 49.8329C38.9712 50.0915 38.6979 50.3195 38.478 50.5899C38.4029 50.6823 38.5035 50.8992 38.2808 50.8959L38.2318 50.8922C38.1094 50.8767 37.9805 50.9107 37.779 50.929L37.7027 51.1726L37.1389 51.3316L37.1511 51.306C37.097 51.3505 37.0443 51.3938 36.9916 51.4372C36.9659 51.4103 36.9402 51.3834 36.9146 51.3564C36.9842 51.202 37.0538 51.0473 37.1368 50.8631C37.1939 50.9012 37.2478 50.9371 37.3118 50.9798L37.4519 50.6971L37.7002 50.6255L37.5738 50.3463L37.6936 50.0575L37.3723 50.1215C37.3005 50.1364 37.2291 50.1536 37.1362 50.1747L37.1973 50.5138L36.917 50.2444L36.9494 50.799L36.7627 50.9508C36.7041 50.9983 36.6479 51.0428 36.5898 51.0851L36.558 51.1062L36.5717 51.146C36.6297 51.3417 36.5857 51.5358 36.4568 51.707L36.4632 51.7281L36.4295 51.7415C36.3033 51.8926 36.1094 52.0239 35.8603 52.1198L35.8468 52.1077L35.5798 52.4769L35.4982 52.4253L35.3963 51.8598L35.2929 51.8636C35.2915 52.1434 34.7777 52.2549 35.0749 52.5895C34.8654 52.7615 34.6889 52.9223 34.494 53.0577C34.4274 53.104 34.3147 53.0866 34.223 53.0984L34.266 52.9433C34.274 52.9179 34.2832 52.8929 34.2946 52.8691C34.3563 52.7395 34.4301 52.6154 34.542 52.4097L34.1836 52.5658L34.4614 52.0526L34.0836 52.1376L33.8667 52.9195L33.7877 52.8779L33.5647 52.6104L33.2666 52.7624C32.8765 52.9669 32.9899 52.9731 33.1519 53.4797C32.6155 53.3302 32.4238 53.7478 32.1532 54.057L31.8837 53.4651L31.7706 53.4493C32.1354 54.2039 31.3915 54.3187 31.1261 54.7564L31.4821 54.629L31.5442 54.8955L30.8783 54.9255L30.8387 54.8025L30.3435 55.4279L30.112 55.3482L29.9556 55.7207L29.68 55.0333L29.9157 55.0157L29.7541 54.7155C29.702 54.6198 29.6501 54.5281 29.5936 54.4391C29.5761 54.4114 29.477 54.4332 29.4156 54.4321C29.4264 54.3308 29.4626 54.2236 29.44 54.13C29.4218 54.0548 29.3431 53.9793 29.2712 53.9359C29.226 53.9085 29.1158 53.9155 29.083 53.9504L28.9544 54.0864C28.8842 54.1644 28.8229 54.2471 28.8038 54.3363C28.7767 54.4623 28.8796 54.6149 28.9252 54.7559L29.1815 54.6181C29.253 54.5785 29.3231 54.5366 29.3937 54.4957L29.5602 54.785L29.335 55.1803L29.2628 54.9392L28.8283 55.2792L28.3688 55.0441L28.3076 55.1238L28.4452 55.3546L28.3334 55.4215C28.2955 55.4435 28.2564 55.4631 28.215 55.4743C28.1884 55.4815 28.1367 55.3999 28.0966 55.3592C28.0827 55.366 28.0751 55.3676 28.0739 55.3641L28.0861 54.6328L27.5921 54.5296L27.8511 54.755C27.7861 54.876 27.6641 54.9483 27.5355 55.0143L27.4386 55.0633C27.2133 55.1781 27.0067 55.3062 27.0897 55.6759C26.8249 55.5356 26.8131 55.389 26.9926 54.9444L26.6117 54.8995L26.5105 55.3965L26.1856 54.9076L26.0496 55.1479L26.3753 55.4098L26.2906 55.5175L25.8422 55.1274L25.6402 55.2308L25.7304 55.256C25.7131 55.3758 25.7222 55.5861 25.6736 55.5997C25.4917 55.6509 25.2908 55.6378 25.0971 55.6489L25.0698 55.5415L24.774 56.0557L24.7514 56.0085L24.3789 56.2296L24.0574 55.7708L24.0591 55.7645L24.0259 55.7861C23.9734 55.8226 23.9212 55.8657 23.8678 55.8672C23.7435 55.8706 23.6181 55.8362 23.4551 55.8118L23.4624 56.1741C23.2236 56.1483 23.1937 56.2543 23.1904 56.3802L23.19 56.4854C23.189 56.5437 23.1832 56.5998 23.1556 56.6431C23.0514 56.8064 22.5257 56.7666 22.3721 56.5964C22.7438 56.5234 23.0438 56.0064 22.8926 55.6418C22.8189 55.7297 22.6988 55.8077 22.703 55.8787C22.7321 56.3713 22.3719 56.2328 22.0909 56.2332L21.8983 56.8932C21.7804 56.7669 21.6446 56.6336 21.5257 56.4871C21.4883 56.441 21.4708 56.3496 21.4918 56.2971C21.5093 56.2531 21.6031 56.2025 21.6512 56.2121C21.9195 56.2654 22.0229 56.1704 22.0185 55.9032C22.0173 55.831 22.1307 55.7569 22.1975 55.6764L22.1264 55.6476C21.9677 55.5874 21.9375 55.622 21.6806 55.9161L20.8666 56.0567L20.5038 55.6522L20.147 55.9695L20.0282 55.6804C19.9099 56.0811 19.338 55.7286 19.2789 56.2916L19.1252 55.943L18.7641 56.2001L18.8757 56.4445L18.7893 56.5084L18.3541 55.9429L18.2045 56.4537L17.9426 55.9192L18.1815 55.842L18.1987 55.7619L17.7761 55.6415L17.7676 55.5541L17.1008 55.5026C17.0046 55.4955 16.8858 55.4527 16.8162 55.4921C16.6101 55.6088 16.4486 55.619 16.3278 55.3512L16.2547 55.3975L16.2494 55.7268L16.1713 55.7766C16.1115 55.6655 16.0186 55.5597 15.999 55.4424C15.9642 55.2333 15.8042 55.1162 15.6754 55.2407L15.6501 55.2688C15.5444 55.4029 15.4491 55.3931 15.3567 55.3646L15.2955 55.3442C15.2752 55.3373 15.255 55.331 15.2347 55.3264L15.2043 55.3211C15.0414 55.3019 14.924 55.2305 15.0344 55.0219C15.0837 54.9288 15.0558 54.7965 15.0689 54.5844L14.7598 54.9199L14.4909 54.6833L14.3501 54.905L14.2322 54.882L14.3117 54.0042L14.1338 54.0678C13.7747 54.2009 13.795 54.2453 13.9577 54.6005L13.4116 54.2758L13.3398 53.9599C13.3052 53.8081 13.2699 53.6644 13.2225 53.5246C13.2079 53.4814 13.0465 53.4471 12.9714 53.4693C12.7041 53.5482 12.4924 53.5242 12.3649 53.2365C12.5509 53.1797 12.8619 53.223 12.7341 52.8637L12.0667 53.0392C11.9606 52.9878 11.7576 52.9311 11.6144 52.8078C11.4922 52.7024 11.4385 52.5208 11.3695 52.3991C11.1661 52.3341 10.9566 52.2913 10.7709 52.2015C10.5452 52.0924 10.3195 51.9662 10.1308 51.8056C9.94363 51.6463 9.80245 51.4353 9.67616 51.1906L10.1271 51.3267C10.051 51.1052 10.0437 50.8848 9.94351 50.8313C9.69108 50.6964 9.54856 50.8878 9.38198 51.1231L9.28095 50.7585C9.26498 50.6976 9.25017 50.6365 9.23761 50.5749C9.18107 50.2981 9.07245 50.07 8.78313 49.954C8.68558 49.915 8.60595 49.8329 8.51814 49.7705L8.21638 49.8272L7.90556 49.5486L8.12664 49.131L8.37086 49.2703L8.43286 49.1846L7.6215 48.5784L7.33426 48.7954L7.36078 48.6669C7.43154 48.2877 7.41249 47.9653 7.00947 47.744L6.97486 48.266L6.94916 48.2317C7.00805 48.4348 7.05493 48.5966 7.10186 48.7584L7.01135 48.7973C6.88167 48.6837 6.75208 48.57 6.6034 48.4398C6.67481 48.3501 6.73862 48.27 6.8622 48.1149L6.66292 47.8431C6.83994 47.4913 6.71031 46.9742 6.37252 46.7639C6.31929 46.7307 6.21463 46.7765 6.20652 46.7775L5.95648 45.9188L6.12928 45.9513L6.10555 45.7965C6.07767 45.6368 6.02404 45.5147 5.76273 45.5437C5.69439 45.5514 5.58988 45.4584 5.54252 45.3863C5.46685 45.271 5.42501 45.1343 5.3649 44.9976C5.63521 44.5837 5.58761 44.4627 5.10443 44.2638C5.03107 44.2335 4.97851 44.0954 4.9639 44.0002C4.92938 43.7758 4.9315 43.5461 4.90035 43.3211C4.8931 43.2683 4.81264 43.2252 4.80332 43.2159C4.77987 43.0364 4.79265 42.8643 4.73108 42.7235C4.62836 42.4882 4.73467 42.3869 4.93506 42.4213C5.18486 42.464 5.19524 42.2455 5.31709 42.1768C5.50868 42.0688 5.47677 42.015 5.41154 41.9625L5.37379 41.9337C5.34149 41.9093 5.30945 41.8832 5.29552 41.8503C5.21869 41.6696 5.2135 41.4594 5.1779 41.2618L5.02459 41.2712L5.09675 42.3861L4.64862 42.2115L4.7092 41.8862L4.2886 41.8728L4.41707 41.522L4.68377 41.7652C4.7407 41.613 4.85624 41.4644 4.82019 41.3732C4.64988 40.9419 4.22255 41.1734 3.88693 41.0672C3.88677 40.9427 3.87738 40.8074 3.88903 40.6739C3.89997 40.5493 3.93331 40.4268 3.9592 40.2904L3.62646 40.1772L3.8214 39.8163C4.12928 39.8802 4.06121 40.1214 4.06295 40.3507L4.06421 40.3935C4.0739 40.5745 3.89165 40.8883 4.34968 40.8874C4.44913 40.3422 3.88371 39.8187 4.26072 39.2048L4.13875 39.1143C4.07412 39.066 4.00019 39.0074 3.93524 38.9405C3.88239 38.886 3.84001 38.7286 3.86598 38.7085C4.1205 38.5117 3.89767 38.3265 3.88499 38.1172L3.62671 38.3056L3.68845 37.7558L3.90841 38.0285L3.99674 37.9868C3.97917 37.3284 3.8621 36.6905 3.52731 36.0664L3.75501 35.9674L3.66322 35.4577L3.36841 35.528L3.33544 35.4685L3.73696 35.1618L3.69205 33.8252C3.20077 33.706 3.52131 34.3576 3.09802 34.3471L3.2906 33.6421C3.88512 33.8254 3.73827 33.1739 4.08673 33.0231C3.75945 32.834 3.61801 32.632 3.74366 32.2574C3.82734 32.0079 3.75128 31.707 3.74624 31.4001L3.55712 31.4327L3.62921 31.1762C3.65257 31.0936 3.67653 31.0136 3.70488 30.935C3.80429 30.6594 3.94843 30.3943 4.00911 30.1116C4.05475 29.8991 3.99899 29.6657 3.98822 29.44C4.28344 29.4152 4.41908 29.0666 4.24105 28.6985C4.64175 28.5036 4.7341 28.1363 4.66196 27.7692C4.56775 27.2905 4.89236 26.9617 5.01001 26.5617C5.01412 26.5477 5.1316 26.5658 5.1987 26.569L4.99512 25.4386C5.45021 25.458 5.46457 25.1165 5.56006 24.8732L5.57588 24.8357C5.75855 24.4346 5.88581 24.0092 6.04156 23.5796L6.20935 23.7709C6.38777 23.4334 6.59316 23.0999 6.74078 22.7435C6.81963 22.5531 6.77314 22.316 6.83192 22.1135C6.87394 21.9685 6.98355 21.7439 7.08593 21.731C7.54822 21.6734 7.54771 21.2648 7.73739 21.0023L7.94461 20.7225C8.04092 20.5946 8.14449 20.4589 8.26184 20.3028L8.40126 19.8998L8.48321 19.6557C8.50138 19.6007 8.51498 19.5447 8.4993 19.501C8.38552 19.1829 8.64691 19.0465 8.79525 18.8471C8.97722 18.6024 9.13368 18.3395 9.30107 18.0845L9.33366 18.0217C9.34099 18.0091 9.34875 17.9998 9.35767 17.9987C9.80373 17.9406 9.7553 17.5526 9.8845 17.2736C9.98574 17.055 10.1097 16.8171 10.2929 16.6711C10.5508 16.4656 10.6289 16.2254 10.5933 15.9345L10.7297 15.9186C11.171 15.858 11.2456 15.7385 11.3368 15.3085C11.3649 15.1763 11.5675 15.0295 11.7195 14.9842L11.7963 14.9596C11.9773 14.8964 12.0709 14.8119 11.9501 14.5479L12.2711 14.7198L12.2867 14.3255L12.3462 14.3136C12.4073 14.0499 12.506 13.8072 12.7056 13.61C12.6923 13.8059 12.6814 13.9664 12.6703 14.098C12.7641 13.9355 12.7516 13.7155 12.7614 13.5129C13.2299 13.5157 13.4261 13.2047 13.6458 12.8907C13.8652 12.5769 14.1404 12.3007 14.3855 12.0036C14.4782 11.8911 14.5551 11.7661 14.6587 11.6191L14.7931 11.6891C14.9145 11.5608 15.0167 11.4262 15.145 11.3227C15.4048 11.1132 15.7176 10.9547 15.9379 10.7134C16.2924 10.3252 16.5891 9.88662 16.9119 9.47053C16.9472 9.425 16.9881 9.38119 17.0343 9.34652L17.4727 9.02112C17.5676 8.95121 17.6599 8.88346 17.7473 8.81893L17.7573 8.90625C17.8756 8.78802 17.9861 8.70187 18.0649 8.59353L18.1829 8.42169C18.2813 8.28274 18.394 8.1652 18.6285 8.14974C18.7046 8.14471 18.775 8.04959 18.8441 7.94334L18.913 7.83632C18.9244 7.81884 18.9359 7.80178 18.9474 7.78551L18.9784 7.74377C19.0413 7.6645 19.0801 7.53727 19.1603 7.5055C19.7543 7.26995 20.189 6.83618 20.6185 6.39953C20.8245 6.19018 20.994 5.94636 21.1506 5.68937L21.2759 5.68692C21.4145 5.68122 21.5524 5.65253 21.7037 5.47073C21.8711 5.26932 22.2401 5.23325 22.5135 5.1103C22.7672 4.99623 23.0242 4.88217 23.2584 4.73544C23.5168 4.57367 23.7736 4.4049 24.0139 4.21824L24.1908 4.07472C24.4617 3.84463 24.7869 3.66247 24.9494 3.31841C25.0038 3.20315 25.1259 3.11844 25.1976 3.04078L25.777 3.3525L25.8745 3.21948L25.4539 2.85514L25.7636 2.75357C25.8288 2.73298 25.8926 2.71467 25.9573 2.70053C26.5142 2.57904 27.1016 2.54517 27.5533 2.13766C27.7671 1.9447 27.9321 1.73347 27.8443 1.4828C28.1635 1.50272 28.4913 1.48301 28.7952 1.55704C28.9812 1.60239 29.1399 1.78179 29.2923 1.9205C29.3679 1.98945 29.4018 2.10228 29.4793 2.23889C29.7834 1.8202 29.5182 1.46988 29.4762 1.17436L29.8439 1.11573C29.9214 1.10259 29.9965 1.088 30.0705 1.06918C30.4823 0.964636 30.864 0.742834 31.3237 0.835233C31.4493 0.860463 31.6145 0.760615 31.7444 0.688638C31.9995 0.547276 32.2372 0.375184 32.494 0.237299C32.5778 0.192373 32.7336 0.168246 32.797 0.213895C33.0407 0.389378 33.2047 0.286302 33.4594 0.192708C33.8296 0.0567171 34.3096 -0.0619201 34.6636 0.0359219ZM38.0438 55.2181C38.3368 55.4985 38.3228 55.6817 38.0427 55.8697C37.9138 55.9563 37.8213 56.1029 37.7203 56.2379L37.6634 56.31L37.3371 55.8084C37.3642 55.7829 37.3913 55.7574 37.4185 55.7321C37.4718 55.7574 37.5251 55.7828 37.5461 55.7928C37.7174 55.595 37.8798 55.4075 38.0438 55.2181ZM24.0271 55.352C23.9521 55.3646 23.8844 55.419 23.7901 55.4668L24.0614 55.7571L24.1034 55.6242C24.112 55.6003 24.1218 55.577 24.134 55.5549C24.1704 55.489 24.2279 55.4343 24.2761 55.3746C24.1928 55.3654 24.1065 55.3387 24.0271 55.352ZM39.9455 54.9426C40.0031 55.5584 39.8699 55.6851 39.1747 55.7534C39.4376 55.4769 39.6662 55.2365 39.9455 54.9426ZM11.8279 55.2648C12.0093 55.3623 12.1908 55.4599 12.4367 55.5922C12.0601 55.7694 11.9016 55.6146 11.8279 55.2648ZM20.8366 55.0531L20.4449 55.0666C20.462 55.4263 20.1558 55.3146 19.9025 55.3756L20.0338 55.4573C20.2099 55.5586 20.3069 55.5272 20.8366 55.0531ZM10.8112 53.8556C10.9348 53.9855 11.0466 54.1289 11.1454 54.28C11.1513 54.2892 10.9994 54.3936 10.9431 54.4713C10.8898 54.5447 10.8657 54.6416 10.8246 54.7378C10.6616 54.5789 10.5472 54.019 10.6469 53.9079C10.6826 53.868 10.791 53.8344 10.8112 53.8556ZM43.6914 53.8176L43.7243 53.8408L43.7158 53.9055C43.7017 53.9982 43.6821 54.0918 43.6949 54.1802C43.7502 54.5623 43.6309 54.6693 43.3576 54.5694C43.3985 54.3774 43.4314 54.2017 43.4741 54.0286C43.4783 54.0116 43.4817 53.9932 43.485 53.9742L43.495 53.917C43.5145 53.8133 43.5471 53.7254 43.6914 53.8176ZM17.1798 54.2937C17.3007 54.58 17.4692 54.6867 17.7859 54.4766L17.1798 54.2937ZM15.8935 53.3243C15.8195 53.4347 16.0098 53.8934 16.1829 54.0031C16.2057 53.9146 16.2129 53.8284 16.2503 53.7574C16.2898 53.6824 16.4125 53.5695 16.4056 53.5627C16.2923 53.4496 16.1682 53.345 16.0355 53.2539C16.0138 53.239 15.92 53.2847 15.8935 53.3243ZM9.538 53.2671C9.68713 53.4634 9.80778 53.6223 9.92841 53.7812C9.87427 53.8154 9.82013 53.8496 9.76607 53.8839C9.75773 53.6579 9.27008 53.7282 9.538 53.2671ZM45.8993 53.0174C45.9807 53.0456 46.0585 53.0848 46.2501 53.1689C45.8887 53.3204 45.6232 53.4317 45.365 53.5398C45.3455 53.3267 45.3425 53.2948 45.6598 53.2922L45.7856 53.2923C45.8089 53.2924 45.8335 53.2926 45.8593 53.2928C45.8277 53.2074 45.7987 53.129 45.7619 53.0293C45.8315 53.0221 45.8694 53.007 45.8993 53.0174ZM14.7828 52.9534C14.6871 53.1926 14.7755 53.2588 14.8814 53.3019L14.94 53.3239C15.0079 53.3491 15.0708 53.3758 15.0856 53.4428L15.218 53.3297L14.7828 52.9534ZM46.7932 51.5201C46.8851 51.7467 46.977 51.9731 47.0766 52.2184C47.1084 52.2009 47.1986 52.1512 47.2887 52.1014C47.309 52.1237 47.3294 52.146 47.3497 52.1684L47.0435 52.5523C46.9408 52.6796 46.8364 52.8054 46.7274 52.9264C46.7023 52.9543 46.5728 52.8785 46.4894 52.8501C46.6684 52.7174 46.8065 52.6152 46.9447 52.513L46.9053 52.4241H46.5237C46.6282 52.259 46.6991 52.1469 46.7529 52.0619C46.7285 51.8921 46.7035 51.7195 46.6787 51.547C46.7168 51.538 46.755 51.5291 46.7932 51.5201ZM10.4845 52.5951C10.2935 52.4302 10.1026 52.2653 9.89955 52.09C10.2261 51.9605 10.395 52.0836 10.4845 52.5951ZM14.9323 51.8939L15.5439 52.2319C15.3837 51.8104 15.2106 51.7322 14.9323 51.8939ZM43.3025 50.589C43.3356 50.6357 43.4151 50.7477 43.5094 50.8806C43.2081 51.0755 43.2208 51.3309 43.3178 51.6026L43.3366 51.6531L43.1227 51.8053C43.0472 51.8589 42.9723 51.9122 42.8983 51.9649C42.5208 51.8 43.0322 51.1649 42.5013 51.1152C42.7439 50.9559 43.0081 50.7823 43.3025 50.589ZM11.3565 51.1253C11.1786 51.5955 11.5402 51.612 11.7356 51.7521L11.8555 51.6528L11.3565 51.1253ZM29.2737 51.0975C29.1836 51.2034 29.1062 51.324 29.0514 51.4512C29.0391 51.4798 29.1297 51.551 29.2197 51.6583L29.5098 51.2311L29.3211 51.1165C29.2952 51.102 29.277 51.0936 29.2737 51.0975ZM47.8025 51.1299C47.9282 51.2567 48.0519 51.3814 48.1985 51.5288C48.0061 51.6489 47.8547 51.6306 47.6465 51.4688C47.5031 51.3573 47.2642 51.3807 47.0679 51.3439C47.0638 51.3145 47.0597 51.2851 47.0556 51.2558C47.3141 51.2122 47.5726 51.1686 47.8025 51.1299ZM6.24809 50.5115C6.40542 50.7678 6.54135 50.989 6.67728 51.2104C6.62847 51.2403 6.57965 51.2701 6.53092 51.2999C6.49805 51.264 6.45856 51.2315 6.41762 51.1996L6.35578 51.1515C6.19142 51.0224 6.04527 50.8755 6.24809 50.5115ZM23.6304 50.9947L22.7427 51.0495L22.7232 51.1754L23.6353 51.1488L23.6304 50.9947ZM41.1078 50.1215L40.7415 50.6894L40.6157 50.6578L40.553 50.7356L40.9278 51.1112L40.9688 51.041C41.0403 50.9101 41.1023 50.7707 41.2067 50.6766C41.4336 50.4723 41.4183 50.3142 41.1078 50.1215ZM49.2771 47.9408C49.4638 48.1838 49.8693 48.1937 49.8074 48.6196C49.7845 48.7771 49.6982 48.9244 49.5627 49.0513C49.511 49.2345 49.4592 49.4178 49.3894 49.665C49.2226 49.3777 49.1059 49.1767 48.9892 48.9758C48.9519 48.9909 48.9146 49.0061 48.8773 49.0212C48.9151 49.1545 48.953 49.2878 49.0087 49.4838C48.8825 49.4433 48.7893 49.4133 48.7196 49.3909C48.4693 49.6963 48.2214 49.9952 47.9781 50.2983C47.9261 50.3632 47.8475 50.4484 47.8551 50.5148C47.8966 50.8781 47.6725 50.9663 47.4116 51.0027C47.0958 51.0467 47.0653 50.8195 47.0602 50.5714C47.3701 50.5565 47.4622 50.3263 47.437 49.6348C47.8776 49.6016 47.7575 49.2645 47.7614 48.9876L47.7618 48.9628L47.8074 48.9822C47.9177 49.0297 48.0369 49.081 48.2188 49.1591C48.6087 48.8944 49.1089 48.6204 49.2771 47.9408ZM28.5454 50.4331C28.3382 50.4862 28.1351 50.5547 27.9315 50.6208L27.7815 50.6726L27.2958 50.8472L27.3534 50.9975L28.6731 50.5543C28.6221 50.5041 28.5724 50.4261 28.5454 50.4331ZM44.7438 50.3488L44.7352 50.3486C44.8333 50.3561 44.9317 50.3634 45.0275 50.3706C45.0657 50.4948 45.1031 50.6161 45.1465 50.7571C45.0367 50.8097 44.9264 50.8625 44.7439 50.9498L44.7438 50.3488ZM30.7905 50.7555L31.2712 50.2716L31.1904 50.2385C30.9038 50.1266 30.8724 50.1925 30.7905 50.7555ZM42.6796 49.7598L42.2223 50.3992L42.3623 50.3594C42.653 50.2714 42.8001 50.1847 42.8455 50.034C42.7942 49.9492 42.7399 49.8595 42.6796 49.7598ZM30.4142 49.6602L29.3861 50.1221L29.4178 50.2003L29.1552 50.1103C29.2673 50.3405 29.4331 50.4168 29.6315 50.3071C29.9248 50.1452 30.1991 49.9504 30.4816 49.7696L30.4142 49.6602ZM9.14159 49.3275L9.71087 49.8665L9.78737 49.7838L9.71533 49.6665C9.60911 49.4967 9.47938 49.3364 9.14159 49.3275ZM11.5777 48.9397L11.3631 49.3049L11.7904 49.5451L11.8671 49.4977L11.5777 48.9397ZM3.49224 48.4106C3.51858 48.5836 3.54492 48.7567 3.58044 48.99C3.16339 49.0192 3.30379 48.5866 3.16076 48.4158L3.49224 48.4106ZM7.16961 45.7251L7.24253 46.4575L6.87723 45.9268L6.77579 45.9683C6.80322 46.0762 6.79657 46.2456 6.86403 46.2815C7.18724 46.4536 7.18949 46.8254 7.41774 47.0755C7.85288 47.5523 8.11997 48.1755 8.4639 48.7336C8.50151 48.7947 8.58571 48.8283 8.64827 48.8745L8.7538 48.7959C8.66434 48.6201 8.5884 48.4362 8.48277 48.2703C8.20447 47.8332 7.90522 47.4089 7.6299 46.9701C7.42432 46.6425 7.46228 46.5445 7.8325 46.337L7.16961 45.7251ZM4.2392 48.0287C4.67873 48.1229 4.7396 48.4164 4.83791 48.6753C4.80555 48.7017 4.77319 48.728 4.74083 48.7544C4.59494 48.5434 4.44904 48.3323 4.2392 48.0287ZM34.7652 47.9347L34.3699 48.2057L34.2791 48.27C34.1391 48.3705 33.9205 48.4452 34.1144 48.6979L34.9935 48.301L34.7652 47.9347ZM8.50011 47.9181L9.10097 48.6776L9.18522 48.619L9.13751 48.5043C9.02373 48.2386 8.88254 47.9924 8.50011 47.9181ZM50.7844 46.8726C50.8475 47.2345 50.8922 47.4909 50.9504 47.8243C50.7073 47.9828 50.3914 48.1885 50.0754 48.3944C50.0466 48.3531 50.0178 48.3118 49.9889 48.2706C50.2035 47.9976 50.4346 47.7366 50.6251 47.4463C50.712 47.314 50.7185 47.1237 50.7844 46.8726ZM45.4823 47.0949L45.3756 47.1069C45.285 47.1188 45.1943 47.1388 45.1333 47.1892C45.0072 47.2934 44.8896 47.4075 44.7738 47.5237C44.7894 47.5279 44.805 47.5319 44.8207 47.536C44.7946 47.7001 44.7686 47.8642 44.7406 48.04L45.1324 47.6952C45.274 47.5695 45.4134 47.443 45.5486 47.3125C45.5761 47.2859 45.4982 47.0932 45.4823 47.0949ZM39.112 46.8397L38.5473 47.7735L38.639 47.8272C39.1274 47.5496 39.3217 47.1586 39.112 46.8397ZM37.7985 46.516L37.2793 47.558C37.8333 47.452 38.2368 46.9545 38.1051 46.5935L37.8596 46.8527L37.857 46.5289L37.7985 46.516ZM40.2557 46.9289L39.988 47.0532C39.621 47.2287 39.6279 47.2668 39.6813 47.4845C40.1108 47.304 40.2937 47.1272 40.2557 46.9289ZM2.83354 43.5385C3.06037 43.8579 3.23878 44.1092 3.42074 44.3656C2.98777 44.5291 2.92861 44.6333 3.08439 45.0468C3.29292 45.6007 3.52964 46.1427 3.74157 46.6952C3.82205 46.9048 3.86754 47.1293 3.92894 47.3471C3.88653 47.3699 3.84414 47.3929 3.80181 47.4158C3.7442 47.3508 3.66116 47.2961 3.6329 47.2191C3.37432 46.5159 3.20982 45.7536 2.83879 45.1251C2.7789 45.0237 2.74396 44.9133 2.71522 44.8016L2.67445 44.6339C2.62685 44.4392 2.56964 44.2518 2.4025 44.112C2.3377 44.0578 2.37725 43.8663 2.36867 43.738C2.40721 43.7289 2.44575 43.7198 2.48437 43.7107C2.56701 43.9058 2.64972 44.1009 2.7709 44.3868C2.79554 44.0531 2.81237 43.8262 2.83354 43.5385ZM41.8159 46.6689C41.8323 46.859 41.8402 47.0499 41.8699 47.2375C41.8794 47.2981 41.9459 47.3501 41.9864 47.406L42.0553 47.3553C42.0687 47.3443 42.0778 47.3338 42.0766 47.3247C42.0706 47.2812 42.0715 47.2349 42.0744 47.1876L42.0412 47.2134L42.0777 47.1423L42.0835 47.0691C42.0952 46.8955 42.0828 46.731 41.8159 46.6689ZM3.82739 46.2975C4.27542 46.4802 4.34578 46.8566 4.42108 47.2304C4.38748 47.2471 4.35396 47.2639 4.32037 47.2806L3.82739 46.2975ZM52.0342 46.3983C52.0111 47.0639 51.9053 47.2195 51.5372 47.2167C51.5899 47.01 51.6466 46.7879 51.7149 46.5201C51.7695 46.4992 51.9022 46.4485 52.0342 46.3983ZM39.6118 46.5557L39.4846 47.0109L39.5673 47.0676L39.9218 46.6809L39.6118 46.5557ZM46.0913 44.8779L46.0919 44.923C46.0863 45.0956 46.0139 45.2838 46.1789 45.4342L46.1656 45.4522C46.1485 45.4728 46.119 45.5065 46.1008 45.5281L45.8063 45.2295C45.7535 45.3372 45.612 45.5025 45.6501 45.5686C45.8385 45.896 45.6712 46.0665 45.4395 46.2249L45.4089 46.2448L45.4474 46.2771C45.4566 46.2853 45.4656 46.2936 45.4742 46.3019L45.4829 46.2843L45.4963 46.3242C45.6012 46.4354 45.6503 46.5653 45.6023 46.7455C45.582 46.8218 45.6377 46.9686 45.7015 47.0004C45.7372 47.0181 45.7911 47.0023 45.8478 46.9795L45.9332 46.9433C45.9472 46.9375 45.9608 46.9321 45.974 46.9276C46.0194 46.9118 46.0587 46.8702 46.1038 46.8651C46.1802 46.8563 46.2591 46.8671 46.3368 46.8697L46.2312 46.7443C46.213 46.724 46.1941 46.7045 46.1738 46.6865C46.0903 46.6125 45.9973 46.5488 45.9689 46.5271L46.0981 45.5287L46.485 45.5732C46.4383 45.4095 46.3822 45.2918 46.3781 45.1726C46.3759 45.1038 46.4179 45.0336 46.4529 44.9637L46.4559 44.9582C46.3907 44.9606 46.2425 44.9169 46.0913 44.8779ZM49.3775 46.0448C49.5309 46.0704 49.6544 46.0911 49.8655 46.1263C49.7212 46.2968 49.6092 46.4291 49.4273 46.6441C49.4045 46.3693 49.3915 46.213 49.3775 46.0448ZM45.199 45.3504L44.5483 45.9248C45.0406 45.8834 44.671 46.5049 45.041 46.5858L45.3928 46.2508L45.3667 46.2084C45.2378 45.9932 45.1886 45.7787 45.4326 45.5661L45.199 45.3504ZM6.45059 44.1342L6.35636 44.1427L6.33792 44.2072C6.33424 44.2175 6.32971 44.2273 6.32356 44.2359L6.22874 44.3724C6.0217 44.684 6.0906 44.7253 6.56047 44.8316C6.61974 44.845 6.67618 44.9759 6.68766 45.0586C6.69995 45.1471 6.61514 45.2615 6.64729 45.3319C6.73008 45.5126 6.85412 45.6754 7.01397 45.9279C7.25237 45.3445 6.73799 44.9546 6.81295 44.4919C6.81333 44.4896 6.77326 44.481 6.72836 44.4691L6.66549 44.6884L6.50126 44.6251L6.45059 44.1342ZM47.0219 43.9215L47.1323 44.2415C47.0384 44.4293 46.9431 44.5677 46.9091 44.7193C46.8989 44.7647 47.057 44.8504 47.1425 44.9117L47.301 45.022C47.4682 45.1427 47.6005 45.2804 47.5049 45.5574C47.4893 45.6024 47.5222 45.6635 47.5612 45.7256C47.6082 45.6286 47.6493 45.5265 47.6577 45.4244C47.671 45.2631 47.684 45.0378 47.5964 44.9436L47.589 44.9333C47.584 44.9397 47.5787 44.9465 47.5732 44.9539L47.5648 44.9077L47.5516 44.8927C47.3746 44.678 47.3912 44.5124 47.5748 44.3287L47.4122 44.2972C47.4907 44.2227 47.6281 44.1482 47.6223 44.0868C47.6045 43.9013 47.4797 43.9449 47.3424 43.9985C47.2784 44.0234 47.1795 43.9628 47.0219 43.9215ZM46.7404 44.8925L46.5031 44.9173C46.4984 44.9268 46.4936 44.9363 46.4887 44.9457L46.4838 44.9492L46.5704 45.4305L46.9085 45.2029L46.7404 44.8925ZM44.2891 44.5128L44.8737 45.1398L45.028 45.0786C44.9644 44.9005 44.9403 44.6887 44.8225 44.5573C44.7522 44.479 44.535 44.527 44.2891 44.5128ZM53.1592 43.997C53.2039 44.3794 53.74 44.7089 53.2606 45.1328C53.2607 45.1328 53.2598 45.1312 53.2598 45.1312C53.1971 44.843 53.1277 44.5562 53.0761 44.2658C53.061 44.1804 53.0963 44.0851 53.1592 43.997ZM51.9527 44.128C51.8181 44.4453 51.6885 44.7506 51.5432 45.0929C51.3856 44.5079 51.4752 44.309 51.9527 44.128ZM47.9417 44.2792L47.952 44.2711C47.8744 44.3207 47.8249 44.4122 47.7832 44.5156C48.0116 44.839 48.074 44.7714 48.4534 44.3604C48.2507 44.4545 48.1442 44.5039 47.9717 44.5839C47.9615 44.4799 47.9516 44.3792 47.9417 44.2792ZM46.6493 44.0208L46.3599 44.4808L46.2948 44.473C46.1164 44.4532 45.9708 44.4599 46.0488 44.7114C46.3164 44.4961 46.7003 44.5756 46.6077 44.0916C46.6365 44.1051 46.6652 44.1186 46.694 44.1321C46.6775 44.0955 46.6614 44.0584 46.6493 44.0208ZM53.1908 42.8588C53.2276 43.5239 52.7086 43.8194 52.616 44.3326C52.2715 43.9584 52.2937 43.9267 52.637 43.6123C52.8374 43.4288 52.9711 43.1647 53.1908 42.8588ZM51.4111 43.5308C51.6436 43.7219 51.5976 43.9198 51.3024 44.2233C51.2888 43.9321 51.2797 43.7367 51.2706 43.5414C51.3175 43.5379 51.3643 43.5343 51.4111 43.5308ZM49.2347 43.1992C49.2611 43.5239 49.0939 43.6698 48.9202 43.8015L48.8259 43.8729C48.7642 43.9209 48.7061 43.971 48.6606 44.0311C48.6267 44.001 48.5927 43.9709 48.5587 43.9408C48.6553 43.7973 48.7393 43.6414 48.8521 43.5135C48.9498 43.4026 49.0801 43.3235 49.2347 43.1992ZM5.59353 41.8604L6.1124 42.9757L6.04454 43.0358L5.67922 42.7319L5.78161 43.8625L6.28685 43.8491L6.0728 43.4406L6.21982 43.4116C6.55001 43.3409 6.54387 43.2745 6.49069 42.6995C6.20037 42.8259 6.06631 42.6822 6.0042 42.2517C6.10263 42.1588 6.21392 42.1013 6.21185 42.0482C6.19237 41.5594 5.82072 41.9495 5.59353 41.8604ZM2.27239 41.5765C2.30629 41.5795 2.3402 41.5824 2.3741 41.5854C2.36159 41.763 2.34908 41.9407 2.33402 42.1543C2.35024 42.1647 2.42237 42.2112 2.49636 42.2588C2.53506 42.1743 2.56996 42.0981 2.6051 42.0213C2.65052 42.0437 2.69145 42.0614 2.6906 42.0639C2.52246 42.5761 2.99428 43.1212 2.62944 43.7388C2.50795 43.4198 2.40732 43.2101 2.35395 42.9879C2.33325 42.9014 2.44524 42.7878 2.4491 42.6847C2.45273 42.5882 2.41782 42.428 2.35742 42.4011C1.81617 42.1599 1.80335 42.1139 2.21972 41.6762C2.24428 41.6503 2.25516 41.61 2.27239 41.5765ZM45.752 42.3967L45.6772 42.402L45.5543 42.9903L46.1227 43.1201L46.117 42.5111L46.003 42.5036L45.9125 42.9157L45.752 42.3967ZM9.39109 39.3874C9.38571 39.6122 9.45625 39.8771 9.3592 40.0536C9.15633 40.4225 9.36176 40.7244 9.44436 41.0663L9.56961 40.8196L9.70519 41.9972C10.1241 41.8321 10.1449 41.7338 9.83142 41.4263L10.0071 41.2937L9.77958 40.9701L10.0472 40.8106L9.68137 40.5273C9.97498 40.2695 9.79496 39.6186 9.39109 39.3874ZM46.5296 41.3407L46.346 41.8921L46.4231 41.9778C46.5216 41.8904 46.6908 41.81 46.7007 41.7138C46.7129 41.5958 46.5921 41.4646 46.5296 41.3407ZM6.83648 41.1185L6.60849 41.1743C7.1005 41.3355 6.7472 41.5586 6.77579 41.7404L7.16192 41.7044L6.83648 41.1185ZM48.3527 38.853L48.5411 39.5004L48.9466 39.2341L48.8416 39.3843C48.6017 39.7188 48.558 39.6751 48.1793 39.2962C47.987 39.521 47.9933 39.6831 48.2535 39.8658C48.3481 39.9322 48.3707 40.1262 48.3833 40.2656C48.3938 40.3818 48.3526 40.507 48.3141 40.6218C48.2784 40.7282 48.2162 40.8261 48.1525 40.9541L47.8954 40.697L47.7908 40.7145L47.7943 41.5036C48.3252 41.2468 48.8363 40.5203 48.6959 40.1769C49.0576 40.2654 49.1583 40.0793 49.2428 39.8742L49.2787 39.7858C49.3333 39.6538 49.3955 39.529 49.5306 39.4792L49.4784 39.3424L49.1452 39.4392L49.0828 39.0926L48.3527 38.853ZM1.89864 38.8273C2.12293 38.9735 2.59235 38.6023 2.51952 39.1628C2.51164 39.2237 2.38235 39.2673 2.26009 39.3537C2.24364 39.8561 2.35864 40.0462 2.69121 39.9594C2.63066 40.7114 2.63066 40.7114 2.10547 40.7211C2.14726 40.8631 2.18718 40.999 2.25468 41.2285C2.01279 41.1907 1.80812 41.1588 1.71544 41.1443C1.75862 40.619 1.7933 40.1976 1.82296 39.8366C1.92096 39.9607 2.03696 40.1076 2.15289 40.2545C2.18077 40.2362 2.20865 40.2178 2.23646 40.1995C2.12385 39.7421 2.01125 39.2847 1.89864 38.8273ZM54.684 40.3744C54.7432 40.4041 54.8024 40.4338 54.8615 40.4633C54.7381 40.7167 54.6148 40.97 54.4914 41.2233C54.4315 41.191 54.3715 41.1585 54.3115 41.126C54.4357 40.8755 54.5599 40.6249 54.684 40.3744ZM50.5067 40.5154L50.0486 40.5229L50.186 41.0254L50.5067 40.5154ZM5.23965 39.5993L4.97886 39.731L5.24878 40.5625L5.44179 39.92L5.70045 40.2287L5.80312 40.175L5.58714 39.7311C5.33517 40.0102 5.29094 39.7787 5.23965 39.5993ZM52.4583 39.6383L52.3405 39.8496C52.3459 39.85 52.3513 39.8504 52.3566 39.8508C52.3903 40.0416 52.4238 40.2324 52.4739 40.5166C52.783 40.0674 52.8398 39.9046 52.7075 39.7839L52.6298 40.0453L52.5038 40.0177L52.4583 39.6383ZM47.2202 39.2961C47.4043 39.7572 46.887 39.6738 46.7185 40.0403C46.9377 40.0439 47.2267 40.0881 47.2425 40.0422C47.32 39.8178 47.3243 39.5692 47.3545 39.3291L47.2202 39.2961ZM4.95017 39.0064L4.78295 39.562L4.95015 39.6123L5.13407 39.0825L4.95017 39.0064ZM54.2105 38.6356C54.0606 38.9464 53.9106 39.2571 53.7608 39.5679C53.689 39.147 53.6837 38.7589 54.2105 38.6356ZM52.1058 38.4846C51.6976 38.714 51.6464 38.8974 51.88 39.3709L52.1058 38.4846ZM5.41516 37.8491C5.44237 37.9598 5.4831 38.0693 5.49371 38.1815C5.51148 38.3695 5.57485 38.6947 5.50614 38.7261C5.07455 38.9239 5.40561 39.0033 5.52853 39.1275C5.8192 38.9284 5.78186 38.2729 5.41516 37.8491ZM3.36089 38.2268C3.4338 38.4551 3.50671 38.6834 3.59452 38.958C3.53803 38.9533 3.4897 38.9493 3.44664 38.9456L3.33039 38.9359C3.27729 38.9314 3.22956 38.9274 3.17746 38.9231C3.18194 38.7104 3.59985 38.5258 3.10811 38.2456C3.19229 38.2393 3.27663 38.2332 3.36089 38.2268ZM49.4818 38.122C49.3598 38.2522 49.2529 38.3401 49.1807 38.4499C49.0973 38.5767 49.0445 38.7226 48.9784 38.8602L49.0853 38.9209C49.2225 38.673 49.596 38.543 49.4818 38.122ZM4.5248 37.3541L4.39429 38.1305L4.97665 38.8624C5.12285 38.4759 4.75898 37.4082 4.5248 37.3541ZM53.1873 38.1828C53.1433 38.2677 53.1257 38.3545 53.1526 38.4248L53.1789 38.49L53.2235 38.517C53.3206 38.5752 53.4311 38.6414 53.5555 38.7161C53.476 38.5282 53.2484 38.3786 53.1873 38.1828ZM51.5198 38.0613L51.393 38.0925L51.5267 38.6682C51.7497 38.3632 51.7614 38.1875 51.5198 38.0613ZM53.0416 37.2085C52.8878 37.5037 52.8063 37.7496 52.6515 37.9375L52.5795 38.0258C52.387 38.2678 52.408 38.3163 52.7427 38.5543C52.7486 38.1026 53.1771 37.7691 53.0416 37.2085ZM55.6949 35.7619C55.6654 35.9073 55.6359 36.0527 55.5902 36.2775C55.7414 36.1469 55.8886 36.0197 56.0394 35.8894C56.0688 35.9361 56.0816 35.9564 56.0942 35.9766C55.8722 36.1217 55.8225 36.3429 55.7862 36.5701L55.7623 36.7218C55.7453 36.8225 55.724 36.9213 55.6844 37.0121C55.574 37.265 55.4402 37.4005 55.0671 37.1903C55.2255 37.7381 55.255 38.1518 55.0178 38.4605C54.8931 38.3768 54.7792 38.3349 54.7198 38.2507C54.6613 38.1678 54.6073 38.0191 54.6397 37.9387C54.764 37.6312 54.9306 37.3431 55.0681 37.0409C55.1559 36.848 55.2204 36.6434 55.3156 36.3903C55.3088 36.3899 55.3991 36.3952 55.5914 36.4065C55.1128 36.1054 55.4419 35.939 55.6949 35.7619ZM57.4297 37.3124C57.4768 37.3276 57.5239 37.3426 57.5709 37.3577C57.5038 37.6085 57.4366 37.8594 57.3695 38.1103C57.3063 38.0911 57.243 38.0718 57.1798 38.0527L57.4297 37.3124ZM56.3741 36.0594C56.3251 36.2079 56.2833 36.3348 56.2145 36.5434C56.3703 36.453 56.4544 36.4041 56.5696 36.3372C56.5578 36.4282 56.5482 36.5015 56.5392 36.5705L56.5315 36.6268L56.5124 36.6321C56.4519 36.6486 56.4008 36.6625 56.4146 36.6587C56.3973 36.891 56.4055 37.0795 56.356 37.2495C56.3427 37.295 56.1449 37.3152 56.0492 37.2852C56.0053 37.2715 55.9868 37.1087 55.9861 37.0133C55.9832 36.6505 56.0269 36.3025 56.3741 36.0594ZM1.95524 36.1827C1.97539 36.3972 1.9781 36.6694 2.29916 36.4012C2.35507 36.6131 2.39941 36.7811 2.44374 36.9492C2.40396 36.9628 2.36419 36.9765 2.32441 36.9901C2.26541 36.8801 2.2064 36.7699 2.10862 36.5876C1.99841 36.8208 1.90674 37.0148 1.78069 37.2815C1.73296 36.9075 1.69458 36.6068 1.65303 36.2814C1.73489 36.2548 1.82965 36.2237 1.95524 36.1827ZM14.4608 19.9599C14.2866 20.0764 14.1579 20.2582 14.0108 20.4137L14.0792 20.4976L13.6933 20.5642L12.7643 21.4682L12.3733 21.2161L12.3495 21.32C12.2775 21.6008 12.1595 21.7601 11.8238 21.6652C11.7996 21.6584 11.7761 21.6544 11.7534 21.6528L11.3836 21.8678C11.3661 21.8902 11.35 21.9125 11.3353 21.9336C11.2595 22.0422 11.3277 22.2472 11.3332 22.4591C11.4903 22.3978 11.585 22.3778 11.6523 22.3384L11.6795 22.3201C11.9572 22.1064 12.2514 22.1872 12.5385 22.2708C12.6841 22.3131 12.8145 22.4054 12.9913 22.4952L12.6167 23.0571L12.1257 22.9242C12.1247 23.049 12.1415 23.1771 12.1179 23.2977C12.0944 23.417 12.0303 23.5286 11.9718 23.6743L11.6559 23.3225C11.4431 24.3258 11.0859 25.1853 10.1217 25.6761L10.4588 25.9677L10.0654 25.9504L9.06781 27.6514L9.03328 27.2271L8.82807 27.3361C8.59156 27.4645 8.41812 27.6015 8.6104 27.9387C8.61922 27.9542 8.61225 27.9938 8.59867 28.0036C8.35116 28.182 8.48013 28.4313 8.46515 28.6528L8.45953 28.698L8.50695 28.6082L8.59241 29.0828L8.66382 29.0687L9.02018 27.9319L9.29121 27.9221L9.53955 27.1839C9.79793 27.4302 9.7164 27.6253 9.61304 27.8123L9.59216 27.8496C9.39789 28.1944 9.19584 28.5351 9.00044 28.8793C8.98503 28.9064 8.9845 28.9514 8.99555 28.9817C9.11083 29.2972 8.86982 29.504 8.76205 29.7546C8.65558 30.0024 8.58361 30.2645 8.4863 30.5505L8.37092 30.5284L8.33766 30.8088C8.25336 30.8114 8.19287 30.805 8.13617 30.8163C7.75191 30.8938 7.70652 31.0177 7.92528 31.3313C7.95738 31.3773 7.95672 31.4525 7.95005 31.5198L7.94555 31.5589C7.88567 32.0282 7.82649 32.4978 7.75109 32.9648C7.72822 33.1068 7.67259 33.2435 7.61142 33.4251L7.5805 33.5199C7.57538 33.5003 7.64017 33.6191 7.60938 33.652C7.53675 33.7296 7.53919 33.8261 7.55259 33.9247L7.56726 34.0235C7.58537 34.1544 7.585 34.279 7.41419 34.3575C7.45872 34.4182 7.49278 34.4919 7.55032 34.5365C7.62746 34.5962 7.72278 34.6334 7.79087 34.6699C7.67602 34.9999 7.54564 35.2864 7.48029 35.5865L7.4224 35.832C7.3664 36.0803 7.33716 36.3352 7.52462 36.5816L7.68649 36.3501C8.00241 35.8847 8.0333 35.7265 7.9193 35.4719L8.20557 35.3493C8.35178 35.6444 7.99572 36.0279 8.45887 36.2104C8.30022 36.5051 8.25342 36.8133 8.47327 37.1463C8.57978 37.0272 8.63776 36.8934 8.69147 36.758C8.72021 36.6854 8.73008 36.6038 8.76824 36.5371L8.83854 36.4124C8.96936 36.1724 8.92415 36.1656 8.56527 36.1068L8.73896 35.363C8.76869 35.2392 8.79943 35.1157 8.83212 34.9926C8.9212 34.6572 8.77282 34.2806 8.47754 34.1352C8.51157 34.031 8.60152 33.9059 8.57018 33.8271C8.35495 33.2864 8.82747 32.9045 8.88621 32.4309C8.88878 32.4101 8.94098 32.379 8.96914 32.3799C9.57658 32.3992 9.41921 31.7982 9.677 31.532C9.78141 31.4242 9.79824 31.2351 9.88557 31.0005C9.74012 30.7547 9.74951 30.5538 9.91909 30.2063L9.95788 30.1295C10.0577 29.9379 10.1662 29.6756 10.1088 29.4946C9.93029 28.9318 10.2088 28.4254 10.2313 27.8922C10.2335 27.8394 10.2852 27.79 10.3083 27.7367C10.495 27.3065 10.9588 27.0189 10.9731 26.498C10.9739 26.4689 11.0058 26.4367 11.0369 26.4103L11.0595 26.3918C11.3875 26.1304 11.7174 25.8713 12.0464 25.6117L11.9467 25.3936L12.5135 25.0457C12.2001 24.7284 11.8858 24.804 11.6033 24.893C11.5057 24.9236 11.4631 25.1329 11.403 25.2639C11.3006 25.4868 11.1675 25.647 10.9151 25.5549C11.0484 25.3686 11.2542 25.1937 11.3064 24.9823C11.3933 24.6311 11.6209 24.508 11.9271 24.4336C11.9289 24.4224 11.9333 24.4109 11.932 24.4001C11.8914 24.0424 12.3265 23.8779 12.3048 23.524C12.3024 23.4843 12.3667 23.4095 12.4077 23.4038C12.6211 23.3741 12.8369 23.3616 13.1142 23.3377C12.782 22.9877 13.246 22.9233 13.3132 22.6961L13.1197 22.5183L13.7428 21.7336C13.5632 21.5687 13.6597 21.4488 13.862 21.3943L13.9039 21.3843C14.2458 21.3118 14.3763 21.143 14.2942 20.7976C14.2766 20.7233 14.379 20.6035 14.4534 20.5317C14.5227 20.4649 14.66 20.4551 14.7104 20.3824C14.778 20.2845 14.7911 20.1504 14.8275 20.0318C14.7024 20.0037 14.5328 19.9117 14.4608 19.9599ZM56.9143 36.0602L57.015 36.0824C56.9505 36.4004 56.8858 36.7185 56.8213 37.0365L56.7185 37.0726L56.5431 36.6238C56.5431 36.6238 56.5303 36.6385 56.5303 36.6385L56.5315 36.6268L56.5394 36.6245L56.7223 36.3493C56.7863 36.253 56.8503 36.1566 56.9143 36.0602ZM52.3332 33.4804L52.0096 34.6183C52.2706 34.6958 52.2892 34.7986 52.0279 35.3269L51.8187 34.7784L51.7343 34.787L51.6897 35.7084L51.4825 35.8018L51.4577 36.5914C51.6989 36.2084 51.9306 35.9008 52.0956 35.562L52.2266 35.3022C52.3673 35.0182 52.4811 34.7221 52.3465 34.3805C52.3397 34.3632 52.3899 34.3286 52.4057 34.2981L52.7482 33.6263L52.3332 33.4804ZM5.04487 35.5878L4.91778 35.6556L4.99021 36.4595C5.31918 36.48 5.29353 36.2036 5.28406 36.0371C5.27522 35.8834 5.13003 35.7373 5.04487 35.5878ZM1.76121 35.4507L1.94201 35.5734C1.84307 35.7625 1.74414 35.9516 1.64528 36.1407C1.58929 36.1106 1.53329 36.0805 1.47729 36.0505C1.57191 35.8505 1.66652 35.6506 1.76121 35.4507ZM56.9156 35.128C57.0217 35.1993 57.1626 35.258 57.1577 35.2964C57.1302 35.5147 57.0677 35.7282 57.0171 35.9434C56.9657 35.9222 56.9142 35.9011 56.8627 35.88C56.8784 35.6568 56.8941 35.4335 56.9156 35.128ZM0.340597 34.8574C0.422387 35.0106 0.501321 35.1583 0.575233 35.2966C0.45977 35.4523 0.344694 35.6074 0.212008 35.7862C0.17818 35.5207 0.151219 35.3087 0.124188 35.0967L0 35.0787C0.119866 35.0008 0.239731 34.9229 0.340597 34.8574ZM2.47649 34.2241C2.78496 34.7788 2.69923 35.5327 2.35245 35.7022C2.24556 35.5365 1.90906 35.3811 2.40544 35.2408C2.45401 35.2271 2.47079 35.0768 2.48049 34.9126L2.48683 34.7887C2.48972 34.7273 2.49248 34.6683 2.49642 34.6181C2.50661 34.4883 2.48421 34.3556 2.47649 34.2241ZM54.0239 34.8574L53.799 35.5562L53.9782 35.6107L54.1996 34.9051L54.0239 34.8574ZM5.01658 34.4767C4.66059 34.7766 4.97678 35.1217 4.85811 35.4103C4.85467 35.4186 4.94992 35.4816 4.95633 35.4756L5.01405 35.4232C5.05357 35.3866 5.08954 35.3473 5.0882 35.3108C5.07848 35.0465 5.04542 34.783 5.01658 34.4767ZM1.62538 33.4853C1.8638 33.593 2.04607 34.8805 1.81684 35.2919C1.63535 34.9323 1.46165 34.5882 1.33831 34.3439C1.4476 34.017 1.53703 33.7494 1.62538 33.4853ZM53.3248 33.4512C52.8628 33.6394 52.9271 33.969 53.0573 34.3161L53.3248 33.4512ZM57.5658 32.2012C57.5153 32.454 57.4508 32.6849 57.4279 32.9203C57.412 33.0825 57.4263 33.248 57.4371 33.4122L57.4435 33.5312L57.3962 33.541C57.0532 33.5951 57.291 33.2023 57.1329 33.0784C57.0482 33.1254 56.9555 33.1768 56.8482 33.2366V32.2347C57.0105 32.4721 57.1113 32.6194 57.2577 32.8335C57.3198 32.5512 57.1225 32.2315 57.5658 32.2012ZM9.08561 33.0072L9.08674 33.1304C9.09496 33.526 9.1545 33.5597 9.48013 33.5023L9.47878 33.3842C9.47433 33.1624 9.44163 32.9619 9.08561 33.0072ZM58.6874 31.0593C58.8144 31.3533 59.0112 31.6202 59.0256 31.8977C59.0389 32.1532 58.8561 32.4199 58.7449 32.7219C58.7762 32.8366 58.8263 33.0199 58.8763 33.203C58.8138 33.2192 58.7513 33.2351 58.6887 33.2512C58.6533 33.051 58.616 32.8513 58.584 32.6506C58.5782 32.6146 58.6121 32.5569 58.5966 32.5394C58.1768 32.0643 58.4607 31.5723 58.5604 31.0851L58.5613 31.0652L58.5605 31.0592L58.6874 31.0593ZM54.2395 30.7699L54.1152 30.8846C53.9559 31.0376 53.8572 31.1904 54.2438 31.3352L53.9894 31.3649L53.9157 31.7387C53.9 31.8145 53.8835 31.8868 53.8633 31.9581C53.7841 32.237 53.6762 32.5087 53.6099 32.7902C53.5926 32.8637 53.6647 32.9817 53.7308 33.0431C53.798 33.1055 53.9084 33.1233 54.035 33.1749C54.2043 32.8746 54.1139 32.5269 53.8853 32.0853C54.2582 32.2055 54.3595 32.0691 54.4215 31.8363C54.5049 31.5229 54.3361 31.1541 54.6369 30.8899L54.5735 30.8242L54.2229 31.2256L54.2395 30.7699ZM2.51578 31.576C2.57765 31.7631 2.70393 31.9581 2.68385 32.1348C2.66214 32.3262 2.63642 32.646 2.29096 32.558C2.31683 32.2446 2.34232 31.9364 2.36773 31.6283L2.51578 31.576ZM4.51607 30.17C4.66905 30.5523 3.97553 30.5832 4.22964 31.0148C4.23203 31.0188 4.13226 31.0861 4.07586 31.1161C4.02217 31.1446 3.9627 31.1627 3.90158 31.1871L3.93046 31.2391C3.93752 31.2521 3.94318 31.2611 3.95092 31.2677L4.0205 31.3289C4.25707 31.5435 4.40699 31.7637 4.0515 32.0608C4.00138 32.1027 4.04191 32.2486 4.04038 32.3463L4.12682 32.3741L4.70864 31.5248L4.18799 31.2725L4.53992 31.1519L4.67642 30.2057L4.51607 30.17ZM5.91886 31.9259C5.81992 31.9511 5.7057 31.9802 5.59131 32.0092C5.6017 32.054 5.6093 32.096 5.61344 32.1364L5.88088 32.3135C5.91941 32.1862 5.95408 32.0559 5.91886 31.9259ZM54.9051 30.9162C54.6254 31.178 54.6389 31.4812 54.6971 31.7897C54.7125 31.8709 54.7543 32.0066 54.7965 32.0114C54.8884 32.0218 55.066 31.9734 55.0711 31.9326C55.0903 31.78 55.0539 31.6208 55.034 31.4203L55.1358 31.374L55.1263 31.122L54.8337 31.3536L54.9051 30.9162ZM55.3985 30.8317L55.1428 31.3712L55.146 31.3703L55.3751 31.7248L55.4632 31.6779L55.4938 30.8348L55.3985 30.8317ZM2.69827 30.3051C2.67031 30.6595 2.65502 30.9662 2.6147 31.2692C2.60644 31.3319 2.50774 31.3851 2.44309 31.4309C2.43521 31.4365 2.34609 31.3461 2.35126 31.3371C2.41171 31.2354 2.42202 31.117 2.42503 30.9943L2.42719 30.8706C2.43203 30.6635 2.45627 30.456 2.69827 30.3051ZM59.696 30.6161C59.6173 30.8031 59.5619 30.9352 59.501 31.0801C59.3545 30.8998 59.2577 30.7809 59.1237 30.6161H59.696ZM55.2566 30.0377L55.3237 30.6864L55.4744 30.7161L55.4971 30.4291C55.5037 30.3335 55.5078 30.2381 55.5036 30.1429C55.5021 30.1094 55.3645 30.0817 55.2566 30.0377ZM58.2175 30.0382L58.174 30.6317C58.1286 30.6371 58.0831 30.6426 58.0375 30.648C57.9884 30.5991 57.9393 30.5504 57.8658 30.4775C57.8172 30.5149 57.7377 30.5764 57.6581 30.6378L57.6107 30.5983C57.6822 30.4742 57.7318 30.3239 57.831 30.2334C57.9351 30.1384 58.0866 30.1009 58.2175 30.0382ZM4.95772 29.0454L4.50206 29.0643L4.48258 29.6816L5.03812 29.6626L4.95772 29.0454ZM58.4018 28.5348C58.3392 29.1612 58.3392 29.1612 58.1028 29.1763C58.2147 28.9364 58.3083 28.7356 58.4018 28.5348ZM8.19786 28.4631L8.08848 29.0605L8.19228 29.1096L8.45908 28.6994L8.19786 28.4631ZM7.20015 28.7361L7.18708 28.7746L7.20114 28.7972C7.25043 28.8633 7.32281 28.9186 7.38171 28.9802C7.42106 28.9031 7.50078 28.8198 7.48954 28.7505L7.47748 28.7121C7.42442 28.7145 7.36503 28.7091 7.29808 28.6944C7.26827 28.6878 7.20687 28.7129 7.20015 28.7361ZM59.0017 27.0802C59.0323 27.0963 59.063 27.1125 59.0936 27.1287C58.911 27.5473 58.7283 27.966 58.5458 28.3847L58.3727 28.2913L59.0017 27.0802ZM56.2504 26.2934L56.1346 26.3132L56.1361 26.3183C56.1374 26.3241 56.1385 26.3298 56.1383 26.3355C56.122 26.7661 55.9382 27.2298 56.3944 27.5682C56.4112 27.5806 56.3892 27.6351 56.4 27.6649C56.4601 27.8308 56.5246 27.995 56.5877 28.1599L56.7516 28.0893L56.5578 27.7002C56.613 27.4256 56.739 27.1696 56.6877 26.9541C56.632 26.7201 56.4113 26.5237 56.2504 26.2934ZM4.11062 28.0929C3.89985 27.879 3.7382 27.715 3.57655 27.551C3.6025 27.5179 3.62845 27.4848 3.6544 27.4517L3.71483 27.4509L3.82239 27.4509C4.20171 27.4568 4.20941 27.5409 4.11062 28.0929ZM5.07394 27.1646L4.84806 27.9035L4.96859 27.8362C5.3738 27.6016 5.37794 27.4911 5.07394 27.1646ZM2.99044 25.3021L3.15387 25.3744C3.04706 25.7188 2.94024 26.0632 2.82794 26.4251C2.74754 26.4389 2.63502 26.4582 2.43105 26.4932C2.68715 26.6909 2.84278 26.8111 2.93584 26.8829C2.65819 27.1862 2.40672 27.461 2.15533 27.7356C2.12652 27.7194 2.09763 27.7032 2.06882 27.687C2.08906 27.576 2.07392 27.4019 2.13524 27.3641C2.61107 27.07 2.42518 26.7619 2.18004 26.4412C2.16614 26.4229 2.16297 26.3956 2.14312 26.3396C2.21271 26.3238 2.27936 26.3148 2.34184 26.293C2.40749 26.27 2.52627 26.2129 2.5245 26.2078C2.33721 25.6663 3.0798 25.7677 2.99044 25.3021ZM59.8334 26.7526C60.2645 27.1457 59.7034 27.3424 59.8679 27.6289C59.815 27.6216 59.7621 27.6142 59.7093 27.6069C59.7472 27.3457 59.7852 27.0845 59.8334 26.7526ZM4.26709 26.6255C4.2864 26.8389 4.34147 27.0158 4.30671 27.1704C4.26045 27.3767 4.03531 27.4065 3.97453 27.2346C3.9339 27.1198 3.91985 26.9946 3.88317 26.824C3.98419 26.7717 4.08343 26.7205 4.26709 26.6255ZM9.65061 25.2955C9.24061 25.3416 9.36445 25.9628 8.99209 25.9689C8.93504 26.0956 8.85377 26.2217 8.77879 26.326C8.74428 26.374 8.71293 26.4197 8.68467 26.4634C8.71018 26.4811 8.73746 26.4928 8.75826 26.4892C8.91185 26.4627 9.06651 26.372 9.21216 26.3866C9.57254 26.4228 9.51282 26.2409 9.42339 26.0334L9.57704 26.0186L9.65061 25.2955ZM57.1032 25.757L56.5807 25.8472L56.9964 26.1828L57.1032 25.757ZM7.1371 24.2398L6.63507 24.2927C6.76468 24.6943 6.24536 25.0186 6.55708 25.4769L7.1371 24.2398ZM10.7328 22.6768C10.5846 22.9165 10.5007 23.2393 10.3081 23.3235C9.95893 23.4759 9.97109 23.7689 9.87074 24.0194L9.84902 24.0689C9.81216 24.1456 9.7922 24.2375 9.7362 24.2967C9.53336 24.5115 9.64492 24.7006 9.75768 24.942L10.2998 24.3969C10.3011 24.2745 10.2736 24.1732 10.3083 24.1001C10.3985 23.9094 10.5019 23.7248 10.6005 23.538L10.8094 23.118C10.8735 22.9775 10.9092 22.8281 10.7328 22.6768ZM3.18705 24.0401C3.38438 24.0677 3.51784 24.0863 3.6747 24.1082C3.66474 24.3287 3.65447 24.5535 3.64211 24.827C3.48548 24.8039 3.26683 24.7716 3.04826 24.7394C3.09429 24.5073 3.1404 24.2752 3.18705 24.0401ZM12.9736 23.7561L12.3707 24.3378L12.4599 24.4275L13.0741 23.8587L12.9736 23.7561ZM6.98034 23.5425L6.92038 23.5606C6.74403 23.6167 6.53036 23.7178 6.73012 23.9698L7.38695 23.7954C7.22286 23.6873 7.07154 23.516 6.98034 23.5425ZM4.15797 21.9891C4.44211 22.46 4.38588 22.5661 3.77667 22.7863C3.90681 22.5141 4.0208 22.2759 4.15797 21.9891ZM15.0025 18.7213C14.9539 18.826 14.828 18.8963 14.7377 18.9824L14.6611 18.9111L14.8175 18.6222L14.7539 18.5358C14.3868 18.7368 13.9963 18.9065 13.6606 19.1491C13.5056 19.2611 13.3753 19.4076 13.2514 19.5605L13.1305 19.7121C13.1541 19.695 13.1778 19.6778 13.2015 19.6607L13.2886 19.7973C13.139 19.9009 12.9894 20.0045 12.8397 20.1081C12.848 20.1552 12.9071 20.1948 13.0592 20.2185L12.6405 20.84L12.7388 20.9362C13.1775 20.6317 13.6167 20.3279 14.0539 20.0212C14.0799 20.003 14.098 19.9637 14.1048 19.9312C14.1975 19.4856 14.5324 19.2736 14.9059 19.0636C15.1886 18.9048 15.4203 18.6589 15.7068 18.4257C15.2858 18.2749 15.1787 18.3416 15.0025 18.7213ZM6.36563 19.0255L6.47935 19.0336C6.59324 19.0416 6.71484 19.0502 6.90912 19.0639C6.60459 19.5264 6.34671 19.9178 6.05623 20.3588C5.81287 19.7755 6.42656 19.5083 6.36563 19.0255ZM20.6105 19.3278C20.4039 19.7124 19.7485 19.615 19.6488 20.1335C20.0276 20.3758 20.2914 20.2407 20.5279 19.9613C20.6875 19.7728 20.8042 19.586 20.642 19.3659L20.6105 19.3278ZM11.5929 18.6813C11.3655 18.9798 11.3598 19.3292 11.3701 19.6937L11.4572 19.6718C11.5091 19.6574 11.5489 19.6421 11.5787 19.6178C11.601 19.5725 11.6229 19.527 11.6445 19.481C11.6636 19.3486 11.6389 19.116 11.5929 18.6813ZM20.7752 18.6039L20.6137 19.32L20.6891 19.332C21.2222 19.4065 21.5172 19.2464 21.536 18.8447L21.1075 19.0314L20.7752 18.6039ZM6.87594 18.2391C6.97789 18.2268 7.10587 18.4516 7.25948 18.6071C7.0235 18.6295 6.84972 18.646 6.68798 18.6614L6.52839 18.6766C6.34512 18.3119 6.67436 18.2634 6.87594 18.2391ZM15.5597 18.0948C15.7046 18.0532 15.8855 18.0501 15.9845 17.9604C16.1051 17.8511 16.1613 17.6709 16.2316 17.5153C16.2387 17.4997 16.1566 17.4221 16.106 17.4087C15.8367 17.3375 15.4747 17.77 15.5597 18.0948ZM17.5481 15.3432L17.2222 15.3995L16.4026 16.5507C16.5359 16.5093 16.6802 16.4961 16.7838 16.4256C17.0071 16.2736 17.2096 16.0923 17.4203 15.9227L17.6542 15.7335L17.4067 15.5695L17.5481 15.3432ZM23.6925 15.2712C23.2091 15.4127 23.8583 15.6674 23.6671 15.8832C23.9497 15.8321 24.2932 15.8505 24.2553 15.5089C24.2436 15.4038 23.8517 15.2246 23.6925 15.2712ZM19.8465 13.4921C19.5503 13.5421 19.4695 13.7361 19.4044 13.9408L19.3692 14.0527C19.3452 14.1269 19.3186 14.1994 19.2796 14.2636C19.6502 14.3782 19.909 14.0211 19.8465 13.4921ZM25.6823 6.86825L25.2757 6.98331C25.2165 7.00065 25.1601 7.018 25.1041 7.03678C24.9318 7.09465 24.7657 7.17088 24.5932 7.22863C24.3024 7.32609 24.0745 7.66648 24.0877 7.97978L24.093 8.03814C24.1318 8.31122 23.9881 8.44617 23.741 8.5363C23.6459 8.5711 23.5422 8.67349 23.5103 8.76722C23.4251 9.01684 23.377 9.27852 23.3141 9.53534L23.1963 9.54208L23.4362 9.78977L23.5042 9.74471L23.4345 9.52928C23.5553 9.51462 23.6849 9.5341 23.7698 9.48265C24.1908 9.22707 24.2739 8.74999 24.5025 8.36376L25.0923 8.55352L24.8843 8.86031C25.5644 8.73484 25.9435 8.29331 26.24 7.77532L25.9784 7.67813C25.8937 7.64688 25.8103 7.61853 25.7249 7.59836L25.6422 7.57726C25.3683 7.50101 25.2656 7.39623 25.6041 7.1552C25.6557 7.11837 25.6485 7.00223 25.6823 6.86825ZM29.294 7.02615L29.2345 7.09303C29.0772 7.27607 28.9209 7.48248 28.5417 7.37722L28.7608 7.82512C28.2608 8.15392 29.0113 8.14907 28.8504 8.46153L29.8128 8.06237L29.7734 7.8885L29.19 7.89738L29.3805 7.5067L29.1043 7.39049L29.6392 7.03147L29.5613 6.96884C29.4284 6.86551 29.4192 6.89237 29.294 7.02615ZM28.6197 6.44612C28.3541 6.73466 28.0686 6.92007 27.9812 7.17157C27.8744 7.47933 27.7001 7.44356 27.4976 7.42456C27.4522 7.55392 27.3808 7.67126 27.3813 7.78835C27.3816 7.86041 27.5237 8.0031 27.5476 7.99285L27.7254 7.91573C27.8737 7.84938 28.0187 7.77489 28.133 7.67053C28.2524 7.56165 28.2894 7.36639 28.3726 7.18928L28.6687 7.20964L28.6197 6.44612ZM29.8806 5.50662L29.903 5.5951C29.6583 5.6471 29.4096 5.75582 29.1697 5.73935C28.679 5.70554 28.3726 5.93499 28.0638 6.32311L28.2385 6.35736C28.2701 6.36326 28.2986 6.36774 28.3273 6.37031C28.4244 6.37903 28.525 6.36614 28.6195 6.38508C28.7417 6.40961 28.8659 6.50058 28.9774 6.48452C29.2276 6.44851 29.4678 6.3461 29.718 6.30804C29.8188 6.29262 29.9351 6.37471 30.0995 6.43147L29.6749 6.70517L29.7761 6.83257L31.0129 5.99256L30.979 5.88309L29.8806 5.50662ZM24.0379 6.32558L23.7655 6.59464L23.86 6.723L24.2238 6.53987L24.0379 6.32558ZM30.8706 4.89103L30.8289 4.91982C30.6984 5.02081 30.5021 5.04024 30.2275 5.13208C30.3428 5.25014 30.4297 5.41887 30.5453 5.44028C30.7594 5.47984 31.0017 5.46777 31.207 5.40171C31.2682 5.38204 31.3045 5.08167 31.2437 4.9634C31.189 4.85698 31.0366 4.79012 30.8706 4.89103ZM42.9387 3.77405L42.8741 3.80579C42.7908 3.84414 42.6908 3.8856 42.6945 3.91459C42.7064 4.0096 42.7294 4.1033 42.756 4.19674L42.8394 4.47731C43.2051 4.33074 43.2344 4.12599 42.9387 3.77405ZM42.1299 3.84243L41.7455 3.87398C41.7547 3.90591 41.7619 3.94226 41.7686 3.97993L41.7881 4.09375C41.8052 4.1867 41.8274 4.26838 41.8771 4.29014C42.3836 4.51209 41.8312 3.91129 42.1716 3.97312L42.1299 3.84243ZM48.8547 2.7963C49.1017 3.25517 49.0314 3.48267 48.6148 3.57768C48.5944 3.35319 48.5575 3.12943 48.5684 2.90834C48.5707 2.86497 48.7587 2.83181 48.8547 2.7963ZM47.5682 2.6755L47.9825 2.71514C47.9889 2.76751 47.9953 2.81981 48.0018 2.87218C47.6521 2.73484 48.1239 3.52765 47.6284 3.17531C47.5409 3.11313 47.5849 2.84729 47.5682 2.6755ZM39.2274 2.61099C38.9568 3.10814 39.4999 2.9841 39.6894 3.25958L39.6702 2.72782L39.2274 2.61099ZM45.1349 0.742078C45.3003 0.823313 45.4286 0.886388 45.583 0.962191C45.5633 1.10877 45.5409 1.27748 45.5015 1.57153C45.353 1.22057 44.7523 1.25503 45.1349 0.742078Z" fill="white"/>
</svg>
